<?xml version="1.0" encoding="UTF-8" standalone="no"?>
<!-- Created with Inkscape (http://www.inkscape.org/) -->

<svg
   xmlns:dc="http://purl.org/dc/elements/1.1/"
   xmlns:cc="http://creativecommons.org/ns#"
   xmlns:rdf="http://www.w3.org/1999/02/22-rdf-syntax-ns#"
   xmlns:svg="http://www.w3.org/2000/svg"
   xmlns="http://www.w3.org/2000/svg"
   xmlns:sodipodi="http://sodipodi.sourceforge.net/DTD/sodipodi-0.dtd"
   xmlns:inkscape="http://www.inkscape.org/namespaces/inkscape"
   version="1.1"
   id="svg2"
   xml:space="preserve"
   width="606.66669"
   height="370.66666"
   viewBox="0 0 606.66669 370.66666"
   sodipodi:docname="flowmap_nl_nbcs.svg"
   inkscape:version="0.92.5 (2060ec1f9f, 2020-04-08)"><metadata
     id="metadata8"><rdf:RDF><cc:Work
         rdf:about=""><dc:format>image/svg+xml</dc:format><dc:type
           rdf:resource="http://purl.org/dc/dcmitype/StillImage" /><dc:title></dc:title></cc:Work></rdf:RDF></metadata><defs
     id="defs6" /><sodipodi:namedview
     pagecolor="#ffffff"
     bordercolor="#666666"
     borderopacity="1"
     objecttolerance="10"
     gridtolerance="10"
     guidetolerance="10"
     inkscape:pageopacity="0"
     inkscape:pageshadow="2"
     inkscape:window-width="1920"
     inkscape:window-height="1043"
     id="namedview4"
     showgrid="false"
     inkscape:zoom="1.2"
     inkscape:cx="403.83939"
     inkscape:cy="139.76995"
     inkscape:window-x="0"
     inkscape:window-y="0"
     inkscape:window-maximized="1"
     inkscape:current-layer="g12" /><g
     id="g10"
     inkscape:groupmode="layer"
     inkscape:label="ink_ext_XXXXXX"
     transform="matrix(1.3333333,0,0,-1.3333333,0,370.66667)"><g
       id="g12"
       transform="scale(0.1)"><path
         d="m 3959.34,1641.25 c 948.67,343.32 -178.05,1073.87 -141.49,568.63 22.03,-257.93 0,-284.33 -258.63,-406.68 -545.51,-258.12 -948.91,-357.34 -948.91,-485.23 0,-157.7 377.46,-207.42 545.04,-265.86 463.75,-117.501 96.56,304.84 803.99,589.14 z"
         style="fill:#000000;fill-opacity:0.15686275;fill-rule:nonzero;stroke:none"
         id="path14"
         inkscape:connector-curvature="0" /><path
         d="m 3959.34,1641.25 c 948.67,343.32 -178.05,1073.87 -141.49,568.63 22.03,-257.93 0,-284.33 -258.63,-406.68 -545.51,-258.12 -948.91,-357.34 -948.91,-485.23 0,-157.7 377.46,-207.42 545.04,-265.86 463.75,-117.501 96.56,304.84 803.99,589.14 z"
         style="fill:none;stroke:#000000;stroke-width:13.97399998;stroke-linecap:butt;stroke-linejoin:miter;stroke-miterlimit:4;stroke-dasharray:none;stroke-opacity:1"
         id="path16"
         inkscape:connector-curvature="0" /><path
         d="m 301.289,2016.09 c 276.133,159.42 629.18,64.81 788.551,-211.29 159.42,-276.09 64.85,-629.14 -211.289,-788.55 C 602.461,856.84 249.41,951.449 90,1227.54 -69.3789,1503.63 25.1992,1856.68 301.289,2016.09 Z"
         style="fill:#000000;fill-opacity:0.15686275;fill-rule:nonzero;stroke:none"
         id="path18"
         inkscape:connector-curvature="0" /><path
         d="m 301.281,2016.09 c 276.137,159.42 629.184,64.81 788.559,-211.28 159.42,-276.1 64.85,-629.15 -211.285,-788.56 C 602.461,856.832 249.414,951.441 89.9961,1227.54 -69.3789,1503.63 25.1992,1856.68 301.281,2016.09 Z"
         style="fill:none;stroke:#000000;stroke-width:13.37769985;stroke-linecap:butt;stroke-linejoin:miter;stroke-miterlimit:4;stroke-dasharray:none;stroke-opacity:1"
         id="path20"
         inkscape:connector-curvature="0" /><path
         d="m 588.012,1537.3 c 9.718,2.23 19.449,-3.86 21.679,-13.71 2.219,-9.72 -3.91,-19.41 -13.64,-21.64 -9.801,-2.22 -19.492,3.87 -21.711,13.6 -2.231,9.84 3.859,19.53 13.672,21.75 z"
         style="fill:#000000;fill-opacity:1;fill-rule:nonzero;stroke:none"
         id="path22"
         inkscape:connector-curvature="0" /><path
         d="m 588.012,1537.3 c 9.718,2.23 19.449,-3.86 21.679,-13.71 2.219,-9.72 -3.91,-19.41 -13.64,-21.64 -9.801,-2.22 -19.492,3.87 -21.711,13.6 -2.231,9.84 3.859,19.53 13.672,21.75 z"
         style="fill:none;stroke:#000000;stroke-width:9.67144966;stroke-linecap:butt;stroke-linejoin:miter;stroke-miterlimit:4;stroke-dasharray:none;stroke-opacity:1"
         id="path24"
         inkscape:connector-curvature="0" /><path
         d="m 3590.2,1652.85 c 9.72,2.19 19.45,-3.9 21.68,-13.71 2.22,-9.73 -3.91,-19.45 -13.64,-21.68 -9.8,-2.23 -19.49,3.91 -21.72,13.63 -2.22,9.81 3.87,19.5 13.68,21.76 z"
         style="fill:#000000;fill-opacity:1;fill-rule:nonzero;stroke:none"
         id="path26"
         inkscape:connector-curvature="0" /><path
         d="m 3590.2,1652.85 c 9.72,2.19 19.45,-3.9 21.68,-13.71 2.22,-9.73 -3.91,-19.45 -13.64,-21.68 -9.8,-2.23 -19.49,3.91 -21.72,13.63 -2.22,9.81 3.87,19.5 13.68,21.76 z"
         style="fill:none;stroke:#000000;stroke-width:9.67144966;stroke-linecap:butt;stroke-linejoin:miter;stroke-miterlimit:4;stroke-dasharray:none;stroke-opacity:1"
         id="path28"
         inkscape:connector-curvature="0" /><path
         d="m 907.969,2096.52 c 338.831,157.66 729.221,245.51 1122.381,252.43 399.03,7.07 800,-69.26 1151.17,-219.11"
         style="fill:none;stroke:#000000;stroke-width:11.82040024;stroke-linecap:butt;stroke-linejoin:miter;stroke-miterlimit:4;stroke-dasharray:none;stroke-opacity:1"
         id="path30"
         inkscape:connector-curvature="0" /><path
         d="m 3181.68,2129.53 -57.19,-17.03 149.89,-33.09 -109.77,107.27 z"
         style="fill:#000000;fill-opacity:1;fill-rule:nonzero;stroke:none"
         id="path32"
         inkscape:connector-curvature="0" /><path
         d="m 3181.68,2129.53 -57.19,-17.03 149.89,-33.09 -109.77,107.27 z"
         style="fill:none;stroke:#000000;stroke-width:11.24300003;stroke-linecap:butt;stroke-linejoin:miter;stroke-miterlimit:4;stroke-dasharray:none;stroke-opacity:1"
         id="path34"
         inkscape:connector-curvature="0" /><path
         d="m 3644.02,1619.61 c 46.33,-10.51 91.57,-25.98 134.65,-46.02 163.67,-76.05 294.1,-220.7 352.89,-391.32"
         style="fill:none;stroke:#000000;stroke-width:13.6566;stroke-linecap:butt;stroke-linejoin:miter;stroke-miterlimit:4;stroke-dasharray:none;stroke-opacity:1"
         id="path36"
         inkscape:connector-curvature="0" /><path
         d="m 3673.32,1629.92 -47.3,-6.17 40,-25.94 c -4.81,11.06 -1.84,24.03 7.3,32.11 z"
         style="fill:#000000;fill-opacity:1;fill-rule:evenodd;stroke:none"
         id="path38"
         inkscape:connector-curvature="0" /><path
         d="m 3673.32,1629.93 -47.3,-6.18 40,-25.94 c -4.81,11.06 -1.84,24.03 7.3,32.12 z"
         style="fill:none;stroke:#000000;stroke-width:2.56061006;stroke-linecap:butt;stroke-linejoin:round;stroke-miterlimit:4;stroke-dasharray:none;stroke-opacity:1"
         id="path40"
         inkscape:connector-curvature="0" /><path
         d="m 2781.88,721.91 h 21.87 c 4.73,0 7.27,0 7.27,4.731 0,2.578 -2.54,2.578 -6.57,2.578 h -20.39 c 8.4,33.121 9.49,37.5 9.49,38.98 0,3.992 -2.93,6.18 -6.95,6.18 -0.7,0 -7.26,0 -9.1,-8.359 l -9.1,-36.801 h -21.88 c -4.72,0 -6.91,0 -6.91,-4.379 0,-2.93 1.84,-2.93 6.56,-2.93 h 20.39 c -16.76,-65.93 -17.85,-69.961 -17.85,-73.941 0,-12.77 8.75,-21.52 21.52,-21.52 23.68,0 36.8,33.903 36.8,35.699 0,2.582 -1.83,2.582 -2.58,2.582 -2.15,0 -2.54,-0.75 -3.63,-3.281 -9.84,-24.418 -22.23,-29.89 -30.23,-29.89 -4.73,0 -7.31,2.929 -7.31,10.55 0,5.86 0.74,7.301 1.49,11.332 z"
         style="fill:#000000;fill-opacity:1;fill-rule:nonzero;stroke:none"
         id="path42"
         inkscape:connector-curvature="0" /><path
         d="m 2901.84,645.898 c 0,17.852 -2.19,30.981 -9.46,42.262 -5.11,7.309 -15.31,13.871 -28.04,13.871 -37.89,0 -37.89,-44.449 -37.89,-56.133 0,-11.636 0,-55 37.89,-55 37.5,0 37.5,43.364 37.5,55 z m -37.5,-50.277 c -7.66,0 -17.5,4.379 -20.79,17.5 -2.18,9.461 -2.18,22.93 -2.18,34.969 0,12.031 0,24.41 2.18,33.16 3.64,12.73 13.83,16.41 20.79,16.41 8.75,0 17.11,-5.469 20.04,-14.961 2.53,-8.75 2.89,-20.398 2.89,-34.609 0,-12.039 0,-24.031 -2.19,-34.258 -3.28,-14.922 -14.18,-18.211 -20.74,-18.211 z"
         style="fill:#000000;fill-opacity:1;fill-rule:nonzero;stroke:none"
         id="path44"
         inkscape:connector-curvature="0" /><path
         d="m 3068.98,682.582 h 64.85 c 3.28,0 7.65,0 7.65,4.719 0,4.379 -4.37,4.379 -7.65,4.379 h -64.85 v 65.199 c 0,3.281 0,7.652 -4.72,7.652 -4.77,0 -4.77,-4.371 -4.77,-7.652 V 691.68 h -64.84 c -3.28,0 -7.66,0 -7.66,-4.379 0,-4.719 4.38,-4.719 7.66,-4.719 h 64.84 V 617.34 c 0,-3.281 0,-7.649 4.77,-7.649 4.72,0 4.72,4.368 4.72,7.649 z"
         style="fill:#000000;fill-opacity:1;fill-rule:nonzero;stroke:none"
         id="path46"
         inkscape:connector-curvature="0" /><path
         d="m 3305.31,770 c 1.8,6.559 2.54,8.012 5.47,8.75 2.19,0.352 9.84,0.352 14.57,0.352 23.67,0 33.87,-0.704 33.87,-18.942 0,-3.64 -0.7,-12.738 -1.8,-18.558 0,-1.09 -0.74,-3.672 -0.74,-4.372 0,-1.492 0.74,-3.281 2.93,-3.281 2.54,0 2.89,1.789 3.63,5.461 l 6.17,40.43 c 0.39,1.101 0.39,3.281 0.39,4.031 0,2.539 -2.18,2.539 -6.21,2.539 h -128.98 c -5.47,0 -5.82,-0.359 -7.66,-4.73 l -13.83,-40.821 c 0,-0.347 -1.44,-3.629 -1.44,-4.379 0,-1.089 1.44,-2.531 2.89,-2.531 2.19,0 2.58,1.442 4.02,5.071 12.39,36.101 18.6,40.082 52.82,40.082 h 9.14 c 6.52,0 6.52,-0.704 6.52,-2.891 0,-1.09 -0.7,-4.02 -1.09,-4.731 l -30.94,-124.25 c -2.19,-8.398 -2.93,-10.941 -27.7,-10.941 -8.39,0 -9.84,0 -9.84,-4.379 0,-2.89 2.54,-2.89 4.02,-2.89 6.18,0 12.74,0.359 18.95,0.359 6.52,0 13.48,0.351 20.04,0.351 6.52,0 12.73,-0.351 19.29,-0.351 6.57,0 13.48,-0.359 20.04,-0.359 2.19,0 5.08,0 5.08,4.73 0,2.539 -1.8,2.539 -8.01,2.539 -5.46,0 -8.75,0 -14.57,0.352 -6.91,0.738 -8.75,1.48 -8.75,5.121 0,0.347 0,1.437 1.1,4.718 z"
         style="fill:#000000;fill-opacity:1;fill-rule:nonzero;stroke:none"
         id="path48"
         inkscape:connector-curvature="0" /><path
         d="m 3635.7,1094.34 h -147.5 v -11.45 h 26.37 V 939.961 H 3488.2 V 928.48 c 9.18,0.782 34.03,0.782 44.73,0.782 11.84,0 38.2,0 49.3,-0.782 v 11.481 h -33.25 v 65.739 h 12.23 c 23.67,0 25.59,-10.348 25.59,-28.278 h 11.48 v 68.398 h -11.48 c 0,-17.97 -1.92,-28.67 -25.59,-28.67 h -12.23 v 65.74 h 34.38 c 38.98,0 44.73,-18.75 48.55,-47.38 h 11.45 z"
         style="fill:#000000;fill-opacity:1;fill-rule:nonzero;stroke:none"
         id="path50"
         inkscape:connector-curvature="0" /><path
         d="m 3697.03,1104.06 h 17.19 c 3.44,0 5.35,0 5.35,3.83 0,2.27 -1.91,2.27 -4.96,2.27 h -16.06 l 6.1,25.23 c 0.39,0.78 0.78,1.91 0.78,2.31 0,3.43 -2.7,5.74 -6.13,5.74 -4.18,0 -6.49,-3.09 -8.01,-7.27 -1.17,-4.61 1.13,3.83 -6.52,-26.01 h -17.19 c -3.05,0 -5.35,0 -5.35,-3.79 0,-2.31 1.91,-2.31 4.96,-2.31 h 16.05 l -9.92,-40.11 c -1.13,-4.22 -2.7,-10.36 -2.7,-12.62 0,-9.96 8.79,-16.06 18.36,-16.06 19.11,0 29.81,23.68 29.81,25.98 0,2.3 -2.31,2.3 -2.66,2.3 -2.3,0 -2.3,-0.39 -3.83,-3.43 -4.6,-10.71 -13.39,-20.28 -22.53,-20.28 -3.83,0 -6.14,2.31 -6.14,8.4 0,1.56 0.78,5.35 1.14,6.92 z"
         style="fill:#000000;fill-opacity:1;fill-rule:nonzero;stroke:none"
         id="path52"
         inkscape:connector-curvature="0" /><path
         d="m 3801.99,1051.41 c 0,8.79 0,42.03 -32.11,42.03 -31.72,0 -31.72,-33.24 -31.72,-42.03 0,-8.79 0,-41.64 31.72,-41.64 32.11,0 32.11,32.85 32.11,41.64 z m -32.11,-37.46 c -4.22,0 -14.53,1.56 -17.58,13.78 -1.91,6.49 -1.91,15.28 -1.91,25.2 0,9.18 0,17.58 1.91,24.45 3.05,10.35 12.62,12.27 17.58,12.27 9.18,0 15.67,-4.61 17.97,-13.4 1.88,-6.09 1.88,-16.05 1.88,-23.32 0,-8.4 0,-18.32 -1.88,-25.59 -3.08,-11.83 -13.01,-13.39 -17.97,-13.39 z"
         style="fill:#000000;fill-opacity:1;fill-rule:nonzero;stroke:none"
         id="path54"
         inkscape:connector-curvature="0" /><path
         d="m 3902.42,1075.39 h 52.35 c 2.3,0 6.13,0 6.13,3.83 0,4.57 -3.83,4.57 -6.13,4.57 h -52.35 v 52.38 c 0,1.92 0,6.1 -3.83,6.1 -4.18,0 -4.18,-3.83 -4.18,-6.1 v -52.38 h -52.38 c -2.3,0 -6.48,0 -6.48,-4.18 0,-4.22 3.83,-4.22 6.48,-4.22 h 52.38 v -52.34 c 0,-2.31 0,-6.53 3.79,-6.53 4.22,0 4.22,4.22 4.22,6.53 z"
         style="fill:#000000;fill-opacity:1;fill-rule:nonzero;stroke:none"
         id="path56"
         inkscape:connector-curvature="0" /><path
         d="m 4056.21,1140 c 1.17,4.96 1.52,5.31 5.35,5.7 0.78,0 6.49,0 9.96,0 10.67,0 14.89,0 19.1,-1.13 7.62,-2.3 8.01,-7.27 8.01,-13.4 0,-2.65 0,-4.96 -1.13,-13.75 l -0.39,-1.91 c 0,-1.92 1.13,-2.66 3.05,-2.66 2.69,0 2.69,1.53 3.08,4.18 l 4.57,32.5 c 0,2.31 -1.91,2.31 -4.96,2.31 h -104.73 c -4.21,0 -4.57,0 -5.74,-3.44 l -11.05,-30.2 c 0,-0.78 -0.78,-2.3 -0.78,-3.04 0,-0.78 0.39,-2.31 3.04,-2.31 2.31,0 2.31,0.74 3.44,4.18 9.96,27.15 15.67,28.67 41.68,28.67 h 6.88 c 5.35,0 5.35,0 5.35,-1.52 0,0 0,-1.13 -0.78,-3.44 l -22.54,-89.8 c -1.53,-6.14 -1.92,-8.05 -19.89,-8.05 -6.09,0 -7.61,0 -7.61,-3.79 0,-0.39 0.35,-2.3 3.04,-2.3 4.57,0 9.93,0.39 14.54,0.39 4.96,0 9.92,0.35 14.49,0.35 5,0 10.7,0 15.7,-0.35 4.57,0 9.53,-0.39 14.14,-0.39 1.52,0 3.79,0 3.79,3.82 0,2.27 -1.52,2.27 -6.87,2.27 -3.05,0 -6.49,0.39 -9.93,0.39 -5.74,0.39 -6.13,1.17 -6.13,3.05 0,1.56 0,1.56 0.78,4.22 z"
         style="fill:#000000;fill-opacity:1;fill-rule:nonzero;stroke:none"
         id="path58"
         inkscape:connector-curvature="0" /><path
         d="m 3697.03,935.781 h 17.19 c 3.44,0 5.35,0 5.35,3.828 0,2.27 -1.91,2.27 -4.96,2.27 h -16.06 l 6.1,25.23 c 0.39,0.782 0.78,1.911 0.78,2.301 0,3.442 -2.7,5.75 -6.13,5.75 -4.18,0 -6.49,-3.09 -8.01,-7.269 -1.17,-4.61 1.13,3.828 -6.52,-26.012 h -17.19 c -3.05,0 -5.35,0 -5.35,-3.789 0,-2.309 1.91,-2.309 4.96,-2.309 h 16.05 l -9.92,-40.121 c -1.13,-4.211 -2.7,-10.351 -2.7,-12.609 0,-9.961 8.79,-16.063 18.36,-16.063 19.11,0 29.81,23.672 29.81,25.981 0,2.301 -2.31,2.301 -2.66,2.301 -2.3,0 -2.3,-0.391 -3.83,-3.43 -4.6,-10.711 -13.39,-20.281 -22.53,-20.281 -3.83,0 -6.14,2.312 -6.14,8.402 0,1.559 0.78,5.348 1.14,6.918 z"
         style="fill:#000000;fill-opacity:1;fill-rule:nonzero;stroke:none"
         id="path60"
         inkscape:connector-curvature="0" /><path
         d="m 3801.99,883.121 c 0,8.789 0,42.039 -32.11,42.039 -31.72,0 -31.72,-33.25 -31.72,-42.039 0,-8.781 0,-41.641 31.72,-41.641 32.11,0 32.11,32.86 32.11,41.641 z m -32.11,-37.461 c -4.22,0 -14.53,1.57 -17.58,13.789 -1.91,6.492 -1.91,15.281 -1.91,25.199 0,9.18 0,17.582 1.91,24.493 3.05,10.308 12.62,12.23 17.58,12.23 9.18,0 15.67,-4.609 17.97,-13.402 1.88,-6.09 1.88,-16.059 1.88,-23.321 0,-8.398 0,-18.32 -1.88,-25.589 -3.08,-11.829 -13.01,-13.399 -17.97,-13.399 z"
         style="fill:#000000;fill-opacity:1;fill-rule:nonzero;stroke:none"
         id="path62"
         inkscape:connector-curvature="0" /><path
         d="m 4207.42,870 c 0,0.781 0,1.172 -4.18,5.352 -30.19,30.589 -38.24,76.839 -38.24,114.296 0,42.422 9.18,84.842 39.38,115.042 3.04,3.04 3.04,3.43 3.04,4.18 0,1.91 -0.74,2.69 -2.26,2.69 -2.7,0 -24.5,-16.83 -38.99,-47.77 -12.22,-26.76 -15.31,-53.91 -15.31,-74.142 0,-19.136 2.69,-48.558 16.05,-76.449 14.93,-29.801 35.55,-45.859 38.25,-45.859 1.52,0 2.26,0.75 2.26,2.66 z"
         style="fill:#000000;fill-opacity:1;fill-rule:nonzero;stroke:none"
         id="path64"
         inkscape:connector-curvature="0" /><path
         d="m 4306.02,988.48 28.28,31.72 c 3.47,3.43 5,5 24.84,5 v 11.44 c -8.4,-0.39 -21.02,-0.74 -22.15,-0.74 -6.13,0 -18.36,0.74 -25.23,0.74 v -11.44 c 3.44,0 6.52,-0.4 9.18,-1.92 -0.78,-1.52 -0.78,-2.3 -1.92,-3.08 l -20.23,-22.93 -24.1,27.93 h 9.96 v 11.44 c -6.53,0 -21.8,-0.74 -29.85,-0.74 -7.61,0 -18.71,0.74 -26.71,0.74 v -11.44 h 17.57 l 37.82,-44.731 -32.11,-35.938 c -3.79,-4.57 -12.58,-4.57 -24.46,-4.57 V 928.48 c 8.4,0.391 21.41,0.782 22.54,0.782 6.14,0 20.28,-0.391 24.85,-0.782 v 11.481 c -4.18,0 -8.79,1.129 -8.79,2.66 0,0.391 0,0.391 1.56,2.301 l 23.67,26.758 26.76,-31.719 h -9.57 V 928.48 c 6.52,0.391 21.41,0.782 29.45,0.782 7.62,0 18.71,-0.391 26.76,-0.782 v 11.481 h -17.23 z"
         style="fill:#000000;fill-opacity:1;fill-rule:nonzero;stroke:none"
         id="path66"
         inkscape:connector-curvature="0" /><path
         d="m 4457.34,946.211 c 0,18.711 -2.26,32.5 -9.92,44.34 -5.35,7.648 -16.05,14.529 -29.41,14.529 -39.77,0 -39.77,-46.639 -39.77,-58.869 0,-12.231 0,-57.691 39.77,-57.691 39.33,0 39.33,45.46 39.33,57.691 z m -39.33,-52.731 c -8.05,0 -18.36,4.571 -21.8,18.36 -2.3,9.922 -2.3,24.058 -2.3,36.68 0,12.609 0,25.582 2.3,34.761 3.83,13.399 14.53,17.189 21.8,17.189 9.14,0 17.93,-5.7 21.01,-15.669 2.66,-9.18 3.05,-21.403 3.05,-36.281 0,-12.622 0,-25.239 -2.3,-35.942 -3.44,-15.668 -14.89,-19.098 -21.76,-19.098 z"
         style="fill:#000000;fill-opacity:1;fill-rule:nonzero;stroke:none"
         id="path68"
         inkscape:connector-curvature="0" /><path
         d="m 4549.1,989.648 c 0,18.712 -2.65,48.122 -16.05,76.052 -14.53,29.81 -35.55,45.86 -37.82,45.86 -1.56,0 -2.69,-1.17 -2.69,-2.69 0,-0.75 0,-1.14 4.61,-5.75 24.06,-24.06 37.81,-62.65 37.81,-113.472 0,-42.07 -8.79,-84.847 -38.98,-115.429 -3.44,-3.047 -3.44,-3.438 -3.44,-4.219 0,-1.52 1.13,-2.66 2.69,-2.66 2.27,0 24.46,16.801 38.6,47.781 12.62,26.758 15.27,53.859 15.27,74.527 z"
         style="fill:#000000;fill-opacity:1;fill-rule:nonzero;stroke:none"
         id="path70"
         inkscape:connector-curvature="0" /><path
         d="m 1484.8,2721.02 h -144.6 v -11.25 h 25.85 v -140.08 h -25.85 v -11.25 c 9.02,0.74 33.35,0.74 43.86,0.74 11.6,0 37.46,0 48.32,-0.74 v 11.25 h -32.61 v 64.41 h 11.99 c 23.24,0 25.12,-10.12 25.12,-27.73 h 11.21 v 67.07 h -11.21 c 0,-17.62 -1.88,-28.09 -25.12,-28.09 h -11.99 v 64.42 h 33.71 c 38.24,0 43.82,-18.36 47.57,-46.45 h 11.25 z"
         style="fill:#000000;fill-opacity:1;fill-rule:nonzero;stroke:none"
         id="path72"
         inkscape:connector-curvature="0" /><path
         d="m 1544.88,2730.55 h 16.88 c 3.36,0 5.23,0 5.23,3.71 0,2.26 -1.87,2.26 -4.88,2.26 h -15.7 l 5.97,24.73 c 0.39,0.74 0.74,1.87 0.74,2.23 0,3.4 -2.61,5.62 -5.97,5.62 -4.14,0 -6.37,-2.97 -7.89,-7.11 -1.1,-4.49 1.13,3.75 -6.37,-25.47 h -16.84 c -3,0 -5.23,0 -5.23,-3.75 0,-2.22 1.88,-2.22 4.84,-2.22 h 15.75 l -9.73,-39.34 c -1.13,-4.14 -2.62,-10.12 -2.62,-12.38 0,-9.73 8.6,-15.74 17.97,-15.74 18.71,0 29.22,23.24 29.22,25.46 0,2.27 -2.27,2.27 -2.62,2.27 -2.26,0 -2.26,-0.39 -3.75,-3.36 -4.49,-10.51 -13.12,-19.88 -22.11,-19.88 -3.75,0 -5.97,2.26 -5.97,8.24 0,1.52 0.74,5.27 1.09,6.76 z"
         style="fill:#000000;fill-opacity:1;fill-rule:nonzero;stroke:none"
         id="path74"
         inkscape:connector-curvature="0" /><path
         d="m 1647.77,2678.95 c 0,8.59 0,41.17 -31.44,41.17 -31.1,0 -31.1,-32.58 -31.1,-41.17 0,-8.64 0,-40.86 31.1,-40.86 31.44,0 31.44,32.22 31.44,40.86 z m -31.44,-36.72 c -4.14,0 -14.26,1.48 -17.27,13.47 -1.87,6.37 -1.87,15 -1.87,24.73 0,8.98 0,17.23 1.87,23.98 3.01,10.12 12.39,12 17.27,12 8.98,0 15.35,-4.5 17.58,-13.13 1.87,-6.01 1.87,-15.74 1.87,-22.85 0,-8.24 0,-17.97 -1.87,-25.12 -2.97,-11.6 -12.74,-13.08 -17.58,-13.08 z"
         style="fill:#000000;fill-opacity:1;fill-rule:nonzero;stroke:none"
         id="path76"
         inkscape:connector-curvature="0" /><path
         d="m 1746.25,2702.42 h 51.33 c 2.22,0 5.97,0 5.97,3.75 0,4.49 -3.75,4.49 -5.97,4.49 h -51.33 v 51.33 c 0,1.88 0,6.02 -3.75,6.02 -4.14,0 -4.14,-3.75 -4.14,-6.02 v -51.33 h -51.33 c -2.23,0 -6.37,0 -6.37,-4.1 0,-4.14 3.75,-4.14 6.37,-4.14 h 51.33 v -51.33 c 0,-2.22 0,-6.36 3.75,-6.36 4.14,0 4.14,4.14 4.14,6.36 z"
         style="fill:#000000;fill-opacity:1;fill-rule:nonzero;stroke:none"
         id="path78"
         inkscape:connector-curvature="0" /><path
         d="m 1896.99,2765.74 c 1.13,4.88 1.49,5.24 5.24,5.63 0.74,0 6.36,0 9.76,0 10.47,0 14.61,0 18.71,-1.14 7.5,-2.22 7.85,-7.11 7.85,-13.12 0,-2.62 0,-4.84 -1.09,-13.48 l -0.39,-1.87 c 0,-1.88 1.13,-2.62 3.01,-2.62 2.62,0 2.62,1.48 3.01,4.14 l 4.49,31.84 c 0,2.22 -1.88,2.22 -4.88,2.22 h -102.66 c -4.1,0 -4.49,0 -5.63,-3.36 l -10.86,-29.6 c 0,-0.75 -0.74,-2.23 -0.74,-2.97 0,-0.79 0.39,-2.27 3.01,-2.27 2.23,0 2.23,0.74 3.36,4.14 9.77,26.6 15.35,28.09 40.82,28.09 h 6.76 c 5.23,0 5.23,0 5.23,-1.49 0,0 0,-1.13 -0.74,-3.4 l -22.11,-88 c -1.48,-6.02 -1.87,-7.89 -19.45,-7.89 -6.02,0 -7.5,0 -7.5,-3.75 0,-0.36 0.35,-2.23 3.01,-2.23 4.49,0 9.72,0.35 14.21,0.35 4.89,0 9.73,0.39 14.22,0.39 4.89,0 10.51,0 15.39,-0.39 4.5,0 9.34,-0.35 13.83,-0.35 1.53,0 3.75,0 3.75,3.75 0,2.23 -1.48,2.23 -6.72,2.23 -3,0 -6.36,0.39 -9.76,0.39 -5.59,0.35 -5.98,1.09 -5.98,2.97 0,1.52 0,1.52 0.74,4.14 z"
         style="fill:#000000;fill-opacity:1;fill-rule:nonzero;stroke:none"
         id="path80"
         inkscape:connector-curvature="0" /><path
         d="m 1544.88,2565.59 h 16.88 c 3.36,0 5.23,0 5.23,3.75 0,2.22 -1.87,2.22 -4.88,2.22 h -15.7 l 5.97,24.73 c 0.39,0.74 0.74,1.87 0.74,2.26 0,3.36 -2.61,5.63 -5.97,5.63 -4.14,0 -6.37,-3.01 -7.89,-7.15 -1.1,-4.49 1.13,3.75 -6.37,-25.47 h -16.84 c -3,0 -5.23,0 -5.23,-3.75 0,-2.22 1.88,-2.22 4.84,-2.22 h 15.75 l -9.73,-39.34 c -1.13,-4.14 -2.62,-10.12 -2.62,-12.38 0,-9.73 8.6,-15.71 17.97,-15.71 18.71,0 29.22,23.21 29.22,25.47 0,2.23 -2.27,2.23 -2.62,2.23 -2.26,0 -2.26,-0.35 -3.75,-3.36 -4.49,-10.51 -13.12,-19.84 -22.11,-19.84 -3.75,0 -5.97,2.22 -5.97,8.24 0,1.48 0.74,5.23 1.09,6.72 z"
         style="fill:#000000;fill-opacity:1;fill-rule:nonzero;stroke:none"
         id="path82"
         inkscape:connector-curvature="0" /><path
         d="m 1647.77,2513.98 c 0,8.6 0,41.22 -31.44,41.22 -31.1,0 -31.1,-32.62 -31.1,-41.22 0,-8.63 0,-40.82 31.1,-40.82 31.44,0 31.44,32.19 31.44,40.82 z m -31.44,-36.71 c -4.14,0 -14.26,1.48 -17.27,13.47 -1.87,6.37 -1.87,15 -1.87,24.73 0,8.98 0,17.23 1.87,23.98 3.01,10.12 12.39,12 17.27,12 8.98,0 15.35,-4.5 17.58,-13.13 1.87,-5.98 1.87,-15.74 1.87,-22.85 0,-8.24 0,-17.97 -1.87,-25.08 -2.97,-11.64 -12.74,-13.12 -17.58,-13.12 z"
         style="fill:#000000;fill-opacity:1;fill-rule:nonzero;stroke:none"
         id="path84"
         inkscape:connector-curvature="0" /><path
         d="m 2045.2,2501.13 c 0,0.75 0,1.1 -4.11,5.24 -29.61,29.96 -37.46,75.31 -37.46,111.99 0,41.6 8.99,83.16 38.6,112.77 2.97,3.01 2.97,3.36 2.97,4.1 0,1.88 -0.75,2.66 -2.23,2.66 -2.62,0 -23.99,-16.48 -38.2,-46.84 -12,-26.21 -15,-52.81 -15,-72.69 0,-18.71 2.61,-47.58 15.74,-74.92 14.61,-29.22 34.84,-44.92 37.46,-44.92 1.48,0 2.23,0.74 2.23,2.61 z"
         style="fill:#000000;fill-opacity:1;fill-rule:nonzero;stroke:none"
         id="path86"
         inkscape:connector-curvature="0" /><path
         d="m 2101.8,2585.78 c -9.38,-15.74 -18.75,-19.1 -29.26,-19.84 -2.97,-0.39 -5.24,-0.39 -5.24,-4.89 0,-1.48 1.53,-2.61 3.4,-2.61 6.37,0 13.83,0.74 20.2,0.74 8.24,0 16.48,-0.74 23.98,-0.74 1.53,0 4.5,0 4.5,4.49 0,2.62 -1.88,3.01 -3.76,3.01 -5.23,0.35 -11.21,2.22 -11.21,8.24 0,2.97 1.49,5.62 3.36,8.98 l 18.36,30.36 h 59.92 c 0.4,-4.89 3.75,-37.47 3.75,-39.73 0,-7.11 -12.34,-7.85 -17.22,-7.85 -3.36,0 -5.63,0 -5.63,-4.89 0,-2.61 2.62,-2.61 3.4,-2.61 9.73,0 19.85,0.74 29.57,0.74 6.02,0 21.37,-0.74 27.35,-0.74 1.13,0 4.14,0 4.14,4.88 0,2.62 -2.27,2.62 -5.63,2.62 -14.61,0 -14.61,1.48 -15.35,8.59 l -14.61,149.1 c -0.39,4.89 -0.39,6.02 -4.49,6.02 -3.75,0 -4.88,-1.88 -6.37,-4.14 z m 28.82,35.2 46.84,79.06 7.85,-79.06 z"
         style="fill:#000000;fill-opacity:1;fill-rule:nonzero;stroke:none"
         id="path88"
         inkscape:connector-curvature="0" /><path
         d="m 2324.38,2575.82 c 0,18.36 -2.27,31.84 -9.73,43.44 -5.27,7.5 -15.74,14.26 -28.87,14.26 -38.94,0 -38.94,-45.71 -38.94,-57.7 0,-11.99 0,-56.56 38.94,-56.56 38.6,0 38.6,44.57 38.6,56.56 z m -38.6,-51.72 c -7.85,0 -17.97,4.49 -21.33,18.01 -2.26,9.73 -2.26,23.59 -2.26,35.94 0,12.38 0,25.11 2.26,34.1 3.75,13.12 14.22,16.87 21.33,16.87 8.99,0 17.62,-5.62 20.63,-15.39 2.61,-8.98 2.97,-20.97 2.97,-35.58 0,-12.35 0,-24.73 -2.23,-35.2 -3.36,-15.35 -14.61,-18.75 -21.37,-18.75 z"
         style="fill:#000000;fill-opacity:1;fill-rule:nonzero;stroke:none"
         id="path90"
         inkscape:connector-curvature="0" /><path
         d="m 2414.3,2618.36 c 0,18.36 -2.62,47.23 -15.75,74.57 -14.21,29.22 -34.84,44.96 -37.07,44.96 -1.52,0 -2.65,-1.13 -2.65,-2.66 0,-0.74 0,-1.09 4.53,-5.58 23.59,-23.63 37.07,-61.45 37.07,-111.29 0,-41.21 -8.63,-83.16 -38.2,-113.13 -3.4,-3 -3.4,-3.35 -3.4,-4.1 0,-1.52 1.13,-2.61 2.65,-2.61 2.23,0 23.95,16.44 37.82,46.79 12.38,26.25 15,52.81 15,73.05 z"
         style="fill:#000000;fill-opacity:1;fill-rule:nonzero;stroke:none"
         id="path92"
         inkscape:connector-curvature="0" /><path
         d="m 2668.75,2636.72 c 3.71,0 8.24,0 8.24,4.49 0,4.88 -4.53,4.88 -7.89,4.88 h -143.08 c -3.4,0 -7.9,0 -7.9,-4.88 0,-4.49 4.5,-4.49 7.9,-4.49 z m 0.35,-46.45 c 3.36,0 7.89,0 7.89,4.89 0,4.49 -4.53,4.49 -8.24,4.49 h -142.73 c -3.4,0 -7.9,0 -7.9,-4.49 0,-4.89 4.5,-4.89 7.9,-4.89 z"
         style="fill:#000000;fill-opacity:1;fill-rule:nonzero;stroke:none"
         id="path94"
         inkscape:connector-curvature="0" /><path
         d="m 2799.41,2585.78 c -9.33,-15.74 -18.71,-19.1 -29.21,-19.84 -2.97,-0.39 -5.24,-0.39 -5.24,-4.89 0,-1.48 1.52,-2.61 3.36,-2.61 6.41,0 13.87,0.74 20.23,0.74 8.25,0 16.49,-0.74 23.99,-0.74 1.48,0 4.49,0 4.49,4.49 0,2.62 -1.87,3.01 -3.75,3.01 -5.23,0.35 -11.21,2.22 -11.21,8.24 0,2.97 1.48,5.62 3.36,8.98 l 18.36,30.36 h 59.92 c 0.39,-4.89 3.75,-37.47 3.75,-39.73 0,-7.11 -12.34,-7.85 -17.23,-7.85 -3.35,0 -5.62,0 -5.62,-4.89 0,-2.61 2.62,-2.61 3.36,-2.61 9.76,0 19.88,0.74 29.61,0.74 6.01,0 21.37,-0.74 27.34,-0.74 1.13,0 4.14,0 4.14,4.88 0,2.62 -2.26,2.62 -5.62,2.62 -14.61,0 -14.61,1.48 -15.35,8.59 l -14.61,149.1 c -0.39,4.89 -0.39,6.02 -4.53,6.02 -3.72,0 -4.85,-1.88 -6.37,-4.14 z m 28.87,35.2 46.84,79.06 7.85,-79.06 z"
         style="fill:#000000;fill-opacity:1;fill-rule:nonzero;stroke:none"
         id="path96"
         inkscape:connector-curvature="0" /><path
         d="m 1407.15,263.91 h -149.77 v -11.64 h 26.76 V 107.148 h -26.76 V 95.5117 c 9.3,0.7774 34.53,0.7774 45.39,0.7774 12.03,0 38.79,0 50.04,-0.7774 v 11.6363 h -33.75 v 66.762 h 12.42 c 24.07,0 25.98,-10.469 25.98,-28.711 h 11.64 v 69.449 h -11.64 c 0,-18.238 -1.91,-29.097 -25.98,-29.097 h -12.42 v 66.719 h 34.92 c 39.57,0 45.4,-19.032 49.26,-48.129 h 11.64 z"
         style="fill:#000000;fill-opacity:1;fill-rule:nonzero;stroke:none"
         id="path98"
         inkscape:connector-curvature="0" /><path
         d="m 1469.38,273.75 h 17.42 c 3.51,0 5.43,0 5.43,3.871 0,2.34 -1.92,2.34 -5.04,2.34 h -16.29 l 6.21,25.59 c 0.39,0.781 0.78,1.949 0.78,2.34 0,3.48 -2.73,5.82 -6.21,5.82 -4.26,0 -6.6,-3.09 -8.13,-7.379 -1.17,-4.652 1.14,3.898 -6.6,-26.371 h -17.46 c -3.12,0 -5.43,0 -5.43,-3.871 0,-2.34 1.92,-2.34 5.04,-2.34 h 16.29 l -10.08,-40.738 c -1.17,-4.262 -2.73,-10.473 -2.73,-12.813 0,-10.078 8.94,-16.289 18.63,-16.289 19.41,0 30.27,24.059 30.27,26.399 0,2.312 -2.34,2.312 -2.73,2.312 -2.3,0 -2.3,-0.391 -3.87,-3.48 -4.65,-10.86 -13.59,-20.59 -22.89,-20.59 -3.9,0 -6.21,2.347 -6.21,8.558 0,1.563 0.78,5.43 1.17,6.993 z"
         style="fill:#000000;fill-opacity:1;fill-rule:nonzero;stroke:none"
         id="path100"
         inkscape:connector-curvature="0" /><path
         d="m 1575.9,220.309 c 0,8.91 0,42.66 -32.58,42.66 -32.19,0 -32.19,-33.75 -32.19,-42.66 0,-8.899 0,-42.297 32.19,-42.297 32.58,0 32.58,33.398 32.58,42.297 z m -32.58,-38.008 c -4.26,0 -14.77,1.531 -17.85,13.949 -1.95,6.602 -1.95,15.512 -1.95,25.629 0,9.293 0,17.851 1.95,24.801 3.08,10.511 12.81,12.422 17.85,12.422 9.3,0 15.9,-4.653 18.24,-13.551 1.92,-6.211 1.92,-16.332 1.92,-23.672 0,-8.559 0,-18.641 -1.92,-26.02 -3.12,-12.027 -13.2,-13.558 -18.24,-13.558 z"
         style="fill:#000000;fill-opacity:1;fill-rule:nonzero;stroke:none"
         id="path102"
         inkscape:connector-curvature="0" /><path
         d="m 1677.89,244.648 h 53.13 c 2.34,0 6.21,0 6.21,3.872 0,4.679 -3.87,4.679 -6.21,4.679 h -53.13 v 53.133 c 0,1.949 0,6.207 -3.91,6.207 -4.25,0 -4.25,-3.867 -4.25,-6.207 v -53.133 h -53.17 c -2.3,0 -6.6,0 -6.6,-4.289 0,-4.262 3.91,-4.262 6.6,-4.262 h 53.17 V 191.48 c 0,-2.3 0,-6.558 3.86,-6.558 4.3,0 4.3,4.258 4.3,6.558 z"
         style="fill:#000000;fill-opacity:1;fill-rule:nonzero;stroke:none"
         id="path104"
         inkscape:connector-curvature="0" /><path
         d="m 1833.98,310.23 c 1.18,5.04 1.57,5.43 5.43,5.821 0.79,0 6.61,0 10.12,0 10.86,0 15.12,0 19.38,-1.172 7.77,-2.34 8.16,-7.379 8.16,-13.59 0,-2.699 0,-5.039 -1.17,-13.949 l -0.39,-1.949 c 0,-1.95 1.17,-2.731 3.08,-2.731 2.74,0 2.74,1.559 3.13,4.289 l 4.65,32.973 c 0,2.308 -1.96,2.308 -5.04,2.308 h -106.29 c -4.3,0 -4.65,0 -5.82,-3.48 l -11.25,-30.66 c 0,-0.75 -0.78,-2.309 -0.78,-3.09 0,-0.781 0.39,-2.34 3.08,-2.34 2.35,0 2.35,0.781 3.52,4.289 10.08,27.539 15.9,29.102 42.26,29.102 h 7 c 5.43,0 5.43,0 5.43,-1.563 0,0 0,-1.168 -0.78,-3.508 l -22.9,-91.14 c -1.56,-6.211 -1.91,-8.16 -20.15,-8.16 -6.21,0 -7.77,0 -7.77,-3.871 0,-0.387 0.39,-2.34 3.12,-2.34 4.65,0 10.08,0.39 14.73,0.39 5.04,0 10.07,0.391 14.72,0.391 5.08,0 10.86,0 15.94,-0.391 4.65,0 9.69,-0.39 14.34,-0.39 1.56,0 3.86,0 3.86,3.871 0,2.34 -1.52,2.34 -6.95,2.34 -3.12,0 -6.6,0.39 -10.12,0.39 -5.82,0.391 -6.21,1.168 -6.21,3.09 0,1.559 0,1.559 0.78,4.289 z"
         style="fill:#000000;fill-opacity:1;fill-rule:nonzero;stroke:none"
         id="path106"
         inkscape:connector-curvature="0" /><path
         d="m 1469.38,102.93 h 17.42 c 3.51,0 5.43,0 5.43,3.871 0,2.34 -1.92,2.34 -5.04,2.34 h -16.29 l 6.21,25.589 c 0.39,0.782 0.78,1.95 0.78,2.34 0,3.481 -2.73,5.821 -6.21,5.821 -4.26,0 -6.6,-3.121 -8.13,-7.379 -1.17,-4.653 1.14,3.867 -6.6,-26.371 h -17.46 c -3.12,0 -5.43,0 -5.43,-3.911 0,-2.3 1.92,-2.3 5.04,-2.3 h 16.29 l -10.08,-40.7386 c -1.17,-4.2617 -2.73,-10.4726 -2.73,-12.8125 0,-10.0781 8.94,-16.2891 18.63,-16.2891 19.41,0 30.27,24.0586 30.27,26.3985 0,2.3125 -2.34,2.3125 -2.73,2.3125 -2.3,0 -2.3,-0.3906 -3.87,-3.4805 -4.65,-10.8594 -13.59,-20.5898 -22.89,-20.5898 -3.9,0 -6.21,2.3515 -6.21,8.5586 0,1.5625 0.78,5.4297 1.17,6.9922 z"
         style="fill:#000000;fill-opacity:1;fill-rule:nonzero;stroke:none"
         id="path108"
         inkscape:connector-curvature="0" /><path
         d="m 1575.9,49.4883 c 0,8.9101 0,42.6601 -32.58,42.6601 -32.19,0 -32.19,-33.75 -32.19,-42.6601 0,-8.9375 0,-42.29689 32.19,-42.29689 32.58,0 32.58,33.35939 32.58,42.29689 z m -32.58,-38.0078 c -4.26,0 -14.77,1.5312 -17.85,13.9492 -1.95,6.6016 -1.95,15.5117 -1.95,25.6211 0,9.3008 0,17.8203 1.95,24.8086 3.08,10.4726 12.81,12.4219 17.85,12.4219 9.3,0 15.9,-4.6524 18.24,-13.5899 1.92,-6.2109 1.92,-16.293 1.92,-23.6406 0,-8.5508 0,-18.6289 -1.92,-26.0117 -3.12,-12.0274 -13.2,-13.5586 -18.24,-13.5586 z"
         style="fill:#000000;fill-opacity:1;fill-rule:nonzero;stroke:none"
         id="path110"
         inkscape:connector-curvature="0" /><path
         d="m 2021.68,189.02 c 0,7.39 -5.82,13.21 -12.81,13.21 -7.39,0 -13.21,-5.82 -13.21,-13.21 0,-6.989 5.82,-13.2 13.21,-13.2 6.99,0 12.81,6.211 12.81,13.2 z m 0,-80.309 c 0,6.988 -5.82,13.199 -12.81,13.199 -7.39,0 -13.21,-6.211 -13.21,-13.199 0,-7.379 5.82,-13.1993 13.21,-13.1993 6.99,0 12.81,5.8203 12.81,13.1993 z"
         style="fill:#000000;fill-opacity:1;fill-rule:nonzero;stroke:none"
         id="path112"
         inkscape:connector-curvature="0" /><path
         d="m 2268.91,238.672 c 2.69,10.117 6.99,17.457 26.75,18.238 1.18,0 4.26,0.391 4.26,5.039 0,0 0,2.742 -3.08,2.742 -8.17,0 -17.07,-0.781 -25.24,-0.781 -8.51,0 -17.85,0.781 -25.98,0.781 -1.56,0 -4.25,0 -4.25,-5.043 0,-2.738 2.3,-2.738 4.25,-2.738 14.34,-0.39 17.08,-5.43 17.08,-10.859 0,-0.781 -0.79,-4.641 -0.79,-5.031 l -22.5,-88.481 c -8.16,-33.359 -36.87,-54.6874 -61.68,-54.6874 -16.68,0 -29.88,10.8594 -29.88,32.1874 0,0.391 0,8.16 2.74,19.02 l 23.63,96.601 c 2.34,8.91 2.73,11.25 20.98,11.25 6.6,0 8.51,0 8.51,5.039 0,2.742 -2.69,2.742 -3.48,2.742 -6.99,0 -24.84,-0.781 -31.83,-0.781 -6.95,0 -24.81,0.781 -31.8,0.781 -1.95,0 -4.65,0 -4.65,-5.043 0,-2.738 1.92,-2.738 7,-2.738 0.39,0 5.03,0 9.29,-0.39 4.26,-0.782 6.6,-0.782 6.6,-4.25 0,-1.18 -2.73,-11.649 -4.25,-17.469 l -5.43,-21.711 c -2.35,-9.731 -13.99,-56.25 -15.16,-61.289 -1.56,-6.602 -1.56,-10.512 -1.56,-14.379 0,-29.883 22.5,-47.34 48.51,-47.34 31.02,0 61.68,27.93 69.85,60.539 z"
         style="fill:#000000;fill-opacity:1;fill-rule:nonzero;stroke:none"
         id="path114"
         inkscape:connector-curvature="0" /><path
         d="m 2582.73,152.539 c -13.55,-10.469 -20.15,-20.551 -22.11,-24.019 -11.24,-17.071 -13.16,-32.6216 -13.16,-32.6216 0,-3.0898 3.09,-3.0898 5.04,-3.0898 3.87,0 4.26,0.3906 5.43,5.043 5.43,24.0584 20.16,45.0004 48.09,56.2504 3.12,1.168 3.9,1.558 3.9,3.519 0,1.52 -1.56,2.301 -1.95,2.688 -11.25,3.871 -41.13,16.293 -50.43,57.812 -0.78,3.09 -1.17,3.867 -5.04,3.867 -1.95,0 -5.04,0 -5.04,-3.078 0,-0.39 2.31,-15.898 12.38,-32.621 5.08,-7.34 12.43,-15.898 22.89,-24.019 h -183.86 c -4.3,0 -8.95,0 -8.95,-4.649 0,-5.082 4.65,-5.082 8.95,-5.082 z"
         style="fill:#000000;fill-opacity:1;fill-rule:nonzero;stroke:none"
         id="path116"
         inkscape:connector-curvature="0" /><path
         d="m 2849.57,238.672 c 2.7,10.117 6.95,17.457 26.76,18.238 1.17,0 4.26,0.391 4.26,5.039 0,0 0,2.742 -3.09,2.742 -8.16,0 -17.07,-0.781 -25.23,-0.781 -8.52,0 -17.86,0.781 -25.98,0.781 -1.56,0 -4.3,0 -4.3,-5.043 0,-2.738 2.35,-2.738 4.3,-2.738 14.33,-0.39 17.07,-5.43 17.07,-10.859 0,-0.781 -0.78,-4.641 -0.78,-5.031 l -22.5,-88.481 c -8.17,-33.359 -36.88,-54.6874 -61.68,-54.6874 -16.68,0 -29.88,10.8594 -29.88,32.1874 0,0.391 0,8.16 2.69,19.02 l 23.67,96.601 c 2.35,8.91 2.74,11.25 20.98,11.25 6.56,0 8.52,0 8.52,5.039 0,2.742 -2.7,2.742 -3.48,2.742 -6.99,0 -24.85,-0.781 -31.84,-0.781 -6.95,0 -24.8,0.781 -31.79,0.781 -1.96,0 -4.65,0 -4.65,-5.043 0,-2.738 1.91,-2.738 6.95,-2.738 0.39,0 5.08,0 9.34,-0.39 4.25,-0.782 6.6,-0.782 6.6,-4.25 0,-1.18 -2.74,-11.649 -4.3,-17.469 l -5.43,-21.711 c -2.3,-9.731 -13.94,-56.25 -15.12,-61.289 -1.56,-6.602 -1.56,-10.512 -1.56,-14.379 0,-29.883 22.5,-47.34 48.52,-47.34 31.01,0 61.68,27.93 69.84,60.539 z"
         style="fill:#000000;fill-opacity:1;fill-rule:nonzero;stroke:none"
         id="path118"
         inkscape:connector-curvature="0" /><path
         d="m 567.031,1391.52 23.438,26.33 c 2.851,2.85 4.101,4.14 20.582,4.14 v 9.49 c -6.949,-0.31 -17.422,-0.66 -18.352,-0.66 -5.078,0 -15.238,0.66 -20.937,0.66 v -9.49 c 2.847,0 5.386,-0.35 7.617,-1.6 -0.629,-1.25 -0.629,-1.87 -1.57,-2.54 l -16.789,-19.02 -19.969,23.16 h 8.211 v 9.49 c -5.352,0 -18.012,-0.66 -24.692,-0.66 -6.332,0 -15.511,0.66 -22.191,0.66 v -9.49 h 14.609 l 31.332,-37.07 -26.601,-29.8 c -3.199,-3.79 -10.43,-3.79 -20.27,-3.79 v -9.49 c 6.992,0.27 17.77,0.62 18.672,0.62 5.078,0 16.828,-0.35 20.578,-0.62 v 9.49 c -3.469,0 -7.301,0.94 -7.301,2.19 0,0.35 0,0.35 1.332,1.91 l 19.61,22.19 22.18,-26.29 h -7.93 v -9.49 c 5.39,0.27 17.781,0.62 24.379,0.62 6.41,0 15.582,-0.35 22.191,-0.62 v 9.49 h -14.262 z"
         style="fill:#000000;fill-opacity:1;fill-rule:nonzero;stroke:none"
         id="path120"
         inkscape:connector-curvature="0" /><path
         d="m 692.5,1356.52 c 0,15.51 -1.91,26.92 -8.238,36.72 -4.461,6.37 -13.282,12.03 -24.422,12.03 -32.93,0 -32.93,-38.59 -32.93,-48.75 0,-10.15 0,-47.89 32.93,-47.89 32.66,0 32.66,37.74 32.66,47.89 z m -32.66,-43.71 c -6.641,0 -15.192,3.75 -18.039,15.2 -1.922,8.2 -1.922,19.96 -1.922,30.39 0,10.51 0,21.21 1.922,28.87 3.16,11.05 12.027,14.25 18.039,14.25 7.621,0 14.89,-4.8 17.461,-13 2.23,-7.58 2.5,-17.74 2.5,-30.12 0,-10.43 0,-20.9 -1.871,-29.77 -2.852,-12.97 -12.379,-15.82 -18.09,-15.82 z"
         style="fill:#000000;fill-opacity:1;fill-rule:nonzero;stroke:none"
         id="path122"
         inkscape:connector-curvature="0" /><path
         d="m 594.34,1510.94 c 154.101,-42.15 314.531,-61.21 474.25,-56.33 179.89,5.51 357.93,41.21 530.04,93.91 114.3,35 226.68,77.61 343.95,100.97 117.22,23.36 241.91,26.49 353.47,-16.48 126.33,-48.67 224.61,-151.41 346.68,-210 144.26,-69.22 320.04,-70.59 464.11,-0.94 72.81,35.2 136.4,86.76 206.68,126.76 82.89,47.22 175.07,78.05 269.68,90.27"
         style="fill:none;stroke:#000000;stroke-width:8.50967026;stroke-linecap:butt;stroke-linejoin:miter;stroke-miterlimit:4;stroke-dasharray:none;stroke-opacity:1"
         id="path124"
         inkscape:connector-curvature="0" /><path
         d="m 535.551,680.898 h 23.398 c 5.071,0 7.813,0 7.813,5.082 0,2.731 -2.742,2.731 -7.032,2.731 h -21.839 c 8.949,35.469 10.121,40.16 10.121,41.719 0,4.3 -3.133,6.64 -7.391,6.64 -0.781,0 -7.812,0 -9.762,-8.98 l -9.769,-39.379 h -23.391 c -5.039,0 -7.39,0 -7.39,-4.691 0,-3.122 1.961,-3.122 6.992,-3.122 h 21.879 c -17.969,-70.589 -19.141,-74.878 -19.141,-79.179 0,-13.629 9.371,-23.008 23.012,-23.008 25.347,0 39.41,36.289 39.41,38.238 0,2.742 -1.949,2.742 -2.731,2.742 -2.351,0 -2.742,-0.781 -3.91,-3.519 -10.55,-26.133 -23.789,-31.992 -32.379,-31.992 -5.043,0 -7.781,3.121 -7.781,11.332 0,6.207 0.789,7.769 1.57,12.07 z"
         style="fill:#000000;fill-opacity:1;fill-rule:nonzero;stroke:none"
         id="path126"
         inkscape:connector-curvature="0" /><path
         d="m 663.949,599.531 c 0,19.141 -2.347,33.168 -10.121,45.27 -5.469,7.781 -16.406,14.808 -30.039,14.808 -40.551,0 -40.551,-47.578 -40.551,-60.078 0,-12.461 0,-58.871 40.551,-58.871 40.16,0 40.16,46.41 40.16,58.871 z m -40.16,-53.793 c -8.199,0 -18.711,4.653 -22.23,18.711 -2.34,10.121 -2.34,24.571 -2.34,37.43 0,12.891 0,26.133 2.34,35.5 3.91,13.641 14.812,17.543 22.23,17.543 9.371,0 18.32,-5.863 21.441,-15.973 2.739,-9.379 3.129,-21.84 3.129,-37.07 0,-12.859 0,-25.75 -2.339,-36.649 -3.52,-16.011 -15.2,-19.492 -22.231,-19.492 z"
         style="fill:#000000;fill-opacity:1;fill-rule:nonzero;stroke:none"
         id="path128"
         inkscape:connector-curvature="0" /><path
         d="m 276.988,1714.14 c -10.738,-18.28 -21.519,-22.23 -33.547,-23.09 -3.441,-0.43 -6.019,-0.43 -6.019,-5.66 0,-1.76 1.719,-3.05 3.867,-3.05 7.301,0 15.902,0.86 23.242,0.86 9.449,0 18.91,-0.86 27.5,-0.86 1.719,0 5.16,0 5.16,5.24 0,3.04 -2.152,3.47 -4.3,3.47 -6.012,0.43 -12.891,2.62 -12.891,9.57 0,3.48 1.719,6.57 3.871,10.47 l 21.051,35.28 h 68.828 c 0.43,-5.67 4.301,-43.56 4.301,-46.17 0,-8.29 -14.223,-9.15 -19.813,-9.15 -3.859,0 -6.437,0 -6.437,-5.66 0,-3.05 3,-3.05 3.859,-3.05 11.18,0 22.82,0.86 33.988,0.86 6.872,0 24.493,-0.86 31.372,-0.86 1.32,0 4.761,0 4.761,5.67 0,3.04 -2.582,3.04 -6.48,3.04 -16.762,0 -16.762,1.72 -17.621,10 l -16.758,173.44 c -0.434,5.67 -0.434,6.96 -5.152,6.96 -4.301,0 -5.59,-2.19 -7.309,-4.81 z m 33.09,40.94 53.75,91.95 9.063,-91.95 z"
         style="fill:#000000;fill-opacity:1;fill-rule:nonzero;stroke:none"
         id="path130"
         inkscape:connector-curvature="0" /><path
         d="m 532.5,1702.54 c 0,21.37 -2.578,37.03 -11.172,50.55 -6.019,8.71 -18.09,16.56 -33.129,16.56 -44.719,0 -44.719,-53.17 -44.719,-67.11 0,-13.95 0,-65.78 44.719,-65.78 44.301,0 44.301,51.83 44.301,65.78 z m -44.301,-60.12 c -9.019,0 -20.621,5.24 -24.488,20.9 -2.582,11.33 -2.582,27.46 -2.582,41.84 0,14.37 0,29.18 2.582,39.64 4.301,15.24 16.328,19.61 24.488,19.61 10.321,0 20.199,-6.52 23.641,-17.85 3.039,-10.47 3.469,-24.41 3.469,-41.4 0,-14.38 0,-28.75 -2.61,-40.94 -3.871,-17.89 -16.758,-21.8 -24.5,-21.8 z"
         style="fill:#000000;fill-opacity:1;fill-rule:nonzero;stroke:none"
         id="path132"
         inkscape:connector-curvature="0" /><path
         d="m 3861.56,1747.85 c -11.05,-18.55 -22.07,-22.5 -34.41,-23.4 -3.56,-0.43 -6.17,-0.43 -6.17,-5.74 0,-1.76 1.75,-3.09 3.94,-3.09 7.5,0 16.33,0.9 23.83,0.9 9.73,0 19.41,-0.9 28.24,-0.9 1.76,0 5.28,0 5.28,5.32 0,3.08 -2.19,3.51 -4.42,3.51 -6.17,0.43 -13.2,2.66 -13.2,9.73 0,3.52 1.76,6.6 3.94,10.59 l 21.64,35.7 h 70.55 c 0.47,-5.74 4.42,-44.1 4.42,-46.76 0,-8.36 -14.54,-9.26 -20.28,-9.26 -3.98,0 -6.64,0 -6.64,-5.74 0,-3.09 3.13,-3.09 3.99,-3.09 11.48,0 23.39,0.9 34.84,0.9 7.07,0 25.16,-0.9 32.23,-0.9 1.28,0 4.84,0 4.84,5.75 0,3.08 -2.66,3.08 -6.64,3.08 -17.19,0 -17.19,1.76 -18.09,10.16 l -17.18,175.55 c -0.43,5.74 -0.43,7.07 -5.32,7.07 -4.37,0 -5.7,-2.23 -7.5,-4.85 z m 33.95,41.45 55.15,93.08 9.26,-93.08 z"
         style="fill:#000000;fill-opacity:1;fill-rule:nonzero;stroke:none"
         id="path134"
         inkscape:connector-curvature="0" /></g></g></svg>
