<?xml version="1.0" encoding="UTF-8" standalone="no"?>
<!-- Created with Inkscape (http://www.inkscape.org/) -->

<svg
   xmlns:dc="http://purl.org/dc/elements/1.1/"
   xmlns:cc="http://creativecommons.org/ns#"
   xmlns:rdf="http://www.w3.org/1999/02/22-rdf-syntax-ns#"
   xmlns:svg="http://www.w3.org/2000/svg"
   xmlns="http://www.w3.org/2000/svg"
   xmlns:sodipodi="http://sodipodi.sourceforge.net/DTD/sodipodi-0.dtd"
   xmlns:inkscape="http://www.inkscape.org/namespaces/inkscape"
   version="1.1"
   id="svg2"
   xml:space="preserve"
   width="606.66669"
   height="377.33334"
   viewBox="0 0 606.66669 377.33334"
   sodipodi:docname="svd_vu_dust1_nbcs.svg"
   inkscape:version="0.92.5 (2060ec1f9f, 2020-04-08)"><metadata
     id="metadata8"><rdf:RDF><cc:Work
         rdf:about=""><dc:format>image/svg+xml</dc:format><dc:type
           rdf:resource="http://purl.org/dc/dcmitype/StillImage" /><dc:title></dc:title></cc:Work></rdf:RDF></metadata><defs
     id="defs6" /><sodipodi:namedview
     pagecolor="#ffffff"
     bordercolor="#666666"
     borderopacity="1"
     objecttolerance="10"
     gridtolerance="10"
     guidetolerance="10"
     inkscape:pageopacity="0"
     inkscape:pageshadow="2"
     inkscape:window-width="1848"
     inkscape:window-height="1016"
     id="namedview4"
     showgrid="false"
     inkscape:zoom="1.6970562"
     inkscape:cx="267.08196"
     inkscape:cy="196.06492"
     inkscape:window-x="1992"
     inkscape:window-y="27"
     inkscape:window-maximized="1"
     inkscape:current-layer="g12" /><g
     id="g10"
     inkscape:groupmode="layer"
     inkscape:label="ink_ext_XXXXXX"
     transform="matrix(1.3333333,0,0,-1.3333333,0,377.33333)"><g
       id="g12"
       transform="scale(0.1)"><path
         d="M 4519.57,2270.78 C 4615.08,2131.91 4277.85,1734.61 3766.29,1383.4 3254.73,1032.19 2762.62,860.078 2667.07,998.98 c -95.51,138.87 241.76,536.18 753.32,887.35 511.52,351.21 1003.67,523.32 1099.18,384.45 z"
         style="fill:#000000;fill-opacity:0.15686275;fill-rule:nonzero;stroke:none"
         id="path14"
         inkscape:connector-curvature="0" /><g
         id="g16"
         transform="matrix(0.564229,0.38737,0.427228,-0.621173,0,0)"><path
           d="m 7321.19,909.929 c -0.02,223.561 -734.95,404.851 -1641.61,404.831 -906.66,0 -1641.6,-181.24 -1641.62,-404.863 0,-223.562 735,-404.816 1641.62,-404.768 906.61,-0.029 1641.61,181.237 1641.61,404.8 z"
           style="fill:none;stroke:#000000;stroke-width:14.12520027;stroke-linecap:butt;stroke-linejoin:miter;stroke-miterlimit:4;stroke-dasharray:none;stroke-opacity:1"
           id="path18"
           inkscape:connector-curvature="0" /></g><g
         id="g20"
         transform="matrix(0.908093,0.0321802,-0.113634,0.946092,0,0)"><path
           d="m 4155.01,1587.17 146.46,-253.71"
           style="fill:none;stroke:#000000;stroke-width:13.44120026;stroke-linecap:butt;stroke-linejoin:miter;stroke-miterlimit:4;stroke-dasharray:none;stroke-opacity:1"
           id="path22"
           inkscape:connector-curvature="0" /></g><path
         d="m 3728.44,1412.66 36.17,-27.31 -12.5,43.52 c -3.09,-10.43 -12.66,-16.96 -23.67,-16.21 z"
         style="fill:#000000;fill-opacity:1;fill-rule:evenodd;stroke:none"
         id="path24"
         inkscape:connector-curvature="0" /><g
         id="g26"
         transform="matrix(-0.427228,0.621173,-0.56423,-0.387369,0,0)"><path
           d="m -1254.36,-5658.23 -57,-20.95 56.96,-20.97 c -9.08,12.35 -9.04,29.26 0.04,41.92 z"
           style="fill:none;stroke:#000000;stroke-width:3.25896001;stroke-linecap:butt;stroke-linejoin:round;stroke-miterlimit:4;stroke-dasharray:none;stroke-opacity:1"
           id="path28"
           inkscape:connector-curvature="0" /></g><g
         id="g30"
         transform="matrix(0.908093,0.0321802,-0.113634,0.946092,0,0)"><path
           d="m 4151.82,1584.46 1082.55,625"
           style="fill:none;stroke:#000000;stroke-width:14.11970043;stroke-linecap:butt;stroke-linejoin:miter;stroke-miterlimit:4;stroke-dasharray:none;stroke-opacity:1"
           id="path32"
           inkscape:connector-curvature="0" /></g><path
         d="m 4491.84,2231.45 24.37,36.87 -43.16,-9.53 c 10.93,-4.38 18.51,-15.43 18.79,-27.34 z"
         style="fill:#000000;fill-opacity:1;fill-rule:evenodd;stroke:none"
         id="path34"
         inkscape:connector-curvature="0" /><g
         id="g36"
         transform="matrix(-0.564229,-0.38737,0.427228,-0.621173,0,0)"><path
           d="m -7255.22,932.127 -59.88,-22.036 59.85,-21.976 c -9.55,12.991 -9.51,30.766 0.03,44.012 z"
           style="fill:none;stroke:#000000;stroke-width:3.42346001;stroke-linecap:butt;stroke-linejoin:round;stroke-miterlimit:4;stroke-dasharray:none;stroke-opacity:1"
           id="path38"
           inkscape:connector-curvature="0" /></g><path
         d="m 301.289,2016.09 c 276.133,159.42 629.18,64.81 788.551,-211.29 159.42,-276.09 64.85,-629.14 -211.289,-788.55 C 602.461,856.84 249.41,951.449 90,1227.54 -69.3789,1503.63 25.1992,1856.68 301.289,2016.09 Z"
         style="fill:#000000;fill-opacity:0.15686275;fill-rule:nonzero;stroke:none"
         id="path40"
         inkscape:connector-curvature="0" /><path
         d="m 301.281,2016.09 c 276.137,159.42 629.184,64.81 788.559,-211.28 159.42,-276.1 64.85,-629.15 -211.285,-788.56 C 602.461,856.832 249.414,951.441 89.9961,1227.54 -69.3789,1503.63 25.1992,1856.68 301.281,2016.09 Z"
         style="fill:none;stroke:#000000;stroke-width:13.37769985;stroke-linecap:butt;stroke-linejoin:miter;stroke-miterlimit:4;stroke-dasharray:none;stroke-opacity:1"
         id="path42"
         inkscape:connector-curvature="0" /><path
         d="m 585.16,1513.24 482.26,278.44"
         style="fill:none;stroke:#000000;stroke-width:12.81410027;stroke-linecap:butt;stroke-linejoin:miter;stroke-miterlimit:4;stroke-dasharray:none;stroke-opacity:1"
         id="path44"
         inkscape:connector-curvature="0" /><path
         d="m 1053.83,1765.9 28.63,34.41 -44.1,-7.65 c 10.39,-4.54 16.6,-15.36 15.47,-26.76 z"
         style="fill:#000000;fill-opacity:1;fill-rule:evenodd;stroke:none"
         id="path46"
         inkscape:connector-curvature="0" /><path
         d="m 1053.83,1765.89 28.63,34.42 -44.1,-7.65 c 10.39,-4.53 16.6,-15.35 15.47,-26.77 z"
         style="fill:none;stroke:#000000;stroke-width:2.40263009;stroke-linecap:butt;stroke-linejoin:round;stroke-miterlimit:4;stroke-dasharray:none;stroke-opacity:1"
         id="path48"
         inkscape:connector-curvature="0" /><path
         d="M 588.871,1518.32 315.078,1992.54"
         style="fill:none;stroke:#000000;stroke-width:12.73040009;stroke-linecap:butt;stroke-linejoin:miter;stroke-miterlimit:4;stroke-dasharray:none;stroke-opacity:1"
         id="path50"
         inkscape:connector-curvature="0" /><path
         d="m 340.699,1979.02 -34.179,28.44 7.582,-43.79 c 4.527,10.31 15.277,16.45 26.597,15.35 z"
         style="fill:#000000;fill-opacity:1;fill-rule:evenodd;stroke:none"
         id="path52"
         inkscape:connector-curvature="0" /><path
         d="m 340.699,1979.02 -34.179,28.44 7.578,-43.79 c 4.535,10.32 15.277,16.44 26.601,15.35 z"
         style="fill:none;stroke:#000000;stroke-width:2.38695002;stroke-linecap:butt;stroke-linejoin:round;stroke-miterlimit:4;stroke-dasharray:none;stroke-opacity:1"
         id="path54"
         inkscape:connector-curvature="0" /><path
         d="m 588.012,1537.3 c 9.718,2.23 19.449,-3.86 21.679,-13.71 2.219,-9.72 -3.91,-19.41 -13.64,-21.64 -9.801,-2.22 -19.492,3.87 -21.711,13.6 -2.231,9.84 3.859,19.53 13.672,21.75 z"
         style="fill:#000000;fill-opacity:1;fill-rule:nonzero;stroke:none"
         id="path56"
         inkscape:connector-curvature="0" /><path
         d="m 588.012,1537.3 c 9.718,2.23 19.449,-3.86 21.679,-13.71 2.219,-9.72 -3.91,-19.41 -13.64,-21.64 -9.801,-2.22 -19.492,3.87 -21.711,13.6 -2.231,9.84 3.859,19.53 13.672,21.75 z"
         style="fill:none;stroke:#000000;stroke-width:9.67144012;stroke-linecap:butt;stroke-linejoin:miter;stroke-miterlimit:4;stroke-dasharray:none;stroke-opacity:1"
         id="path58"
         inkscape:connector-curvature="0" /><path
         d="m 3590.2,1652.85 c 9.72,2.19 19.45,-3.9 21.68,-13.71 2.22,-9.73 -3.91,-19.45 -13.64,-21.68 -9.8,-2.23 -19.49,3.91 -21.72,13.63 -2.22,9.81 3.87,19.5 13.68,21.76 z"
         style="fill:#000000;fill-opacity:1;fill-rule:nonzero;stroke:none"
         id="path60"
         inkscape:connector-curvature="0" /><path
         d="m 3590.2,1652.85 c 9.72,2.19 19.45,-3.9 21.68,-13.71 2.22,-9.73 -3.91,-19.45 -13.64,-21.68 -9.8,-2.23 -19.49,3.91 -21.72,13.63 -2.22,9.81 3.87,19.5 13.68,21.76 z"
         style="fill:none;stroke:#000000;stroke-width:9.67144012;stroke-linecap:butt;stroke-linejoin:miter;stroke-miterlimit:4;stroke-dasharray:none;stroke-opacity:1"
         id="path62"
         inkscape:connector-curvature="0" /><path
         d="m 378.91,1680.66 c 0,11.41 -5.512,14.65 -9.109,14.65 -5.192,0 -10.422,-5.51 -10.422,-10.08 0,-2.61 0.973,-3.86 3.281,-6.13 4.531,-4.3 7.141,-9.49 7.141,-16.91 0,-8.79 -12.692,-56.29 -36.711,-56.29 -10.789,0 -15.629,7.19 -15.629,18.24 0,11.37 5.859,26.64 12.027,43.91 1.641,3.51 2.621,6.48 2.621,10.35 0,9.1 -6.488,16.91 -16.91,16.91 -19.539,0 -27.347,-30.23 -27.347,-31.83 0,-2.27 1.949,-2.27 2.308,-2.27 2.262,0 2.262,0.63 3.238,3.87 6.172,20.82 14.961,25.66 21.133,25.66 1.641,0 5.239,0 5.239,-6.48 0,-5.16 -2.309,-11.06 -3.598,-14.65 -9.141,-24.02 -11.723,-33.48 -11.723,-42.58 0,-22.46 18.211,-25.66 27.66,-25.66 34.801,0 46.801,68.59 46.801,79.29 z"
         style="fill:#000000;fill-opacity:1;fill-rule:nonzero;stroke:none"
         id="path64"
         inkscape:connector-curvature="0" /><path
         d="m 430.621,1664.88 c 0,3.91 0,3.91 -4.211,3.91 -9.461,-9.14 -22.43,-9.14 -28.32,-9.14 v -5.16 c 3.281,0 13,0 20.82,3.87 v -73.83 c 0,-4.84 0,-6.8 -14.301,-6.8 h -5.507 v -5.19 c 2.578,0 20.468,0.66 25.668,0.66 4.57,0 22.769,-0.66 26.011,-0.66 v 5.19 h -5.511 c -14.649,0 -14.649,1.96 -14.649,6.8 z"
         style="fill:#000000;fill-opacity:1;fill-rule:nonzero;stroke:none"
         id="path66"
         inkscape:connector-curvature="0" /><path
         d="m 900.309,1620.23 c 0,9.77 -4.719,12.58 -7.77,12.58 -4.527,0 -8.988,-4.76 -8.988,-8.67 0,-2.23 0.859,-3.36 2.82,-5.27 3.859,-3.64 6.168,-8.09 6.168,-14.53 0,-7.54 -10.937,-48.36 -31.598,-48.36 -9.222,0 -13.441,6.17 -13.441,15.66 0,9.77 5.078,22.89 10.352,37.7 1.41,3.08 2.269,5.58 2.269,8.98 0,7.81 -5.633,14.49 -14.531,14.49 -16.762,0 -23.52,-25.97 -23.52,-27.38 0,-1.95 1.719,-1.95 1.989,-1.95 1.961,0 1.961,0.54 2.781,3.36 5.308,17.85 12.851,22.07 18.16,22.07 1.41,0 4.488,0 4.488,-5.59 0,-4.45 -1.988,-9.49 -3.078,-12.54 -7.82,-20.7 -10.039,-28.83 -10.039,-36.64 0,-19.3 15.578,-22.07 23.75,-22.07 29.879,0 40.188,58.95 40.188,68.16 z"
         style="fill:#000000;fill-opacity:1;fill-rule:nonzero;stroke:none"
         id="path68"
         inkscape:connector-curvature="0" /><path
         d="m 965.98,1549.96 h -4.14 c -0.32,-2.81 -1.68,-10.08 -3.399,-11.17 -0.82,-0.82 -10.351,-0.82 -12.269,-0.82 h -22.891 c 13.129,11.44 17.578,15.04 24.809,20.9 9.211,7.26 17.89,15.11 17.89,26.87 0,15.08 -13.128,24.26 -29.031,24.26 -15.39,0 -25.969,-10.9 -25.969,-22.34 0,-6.14 5.309,-7 6.68,-7 2.77,0 6.442,2.27 6.442,6.72 0,2.23 -0.821,6.72 -7.262,6.72 3.898,8.63 12.262,11.45 18.16,11.45 12.539,0 18.98,-9.81 18.98,-19.81 0,-10.9 -7.808,-19.29 -11.71,-23.79 l -29.93,-29.92 c -1.36,-1.05 -1.36,-1.37 -1.36,-4.69 h 51.399 z"
         style="fill:#000000;fill-opacity:1;fill-rule:nonzero;stroke:none"
         id="path70"
         inkscape:connector-curvature="0" /><path
         d="m 1418.12,2768.48 c 0.4,0.7 1.1,2.22 1.1,3.32 0,1.48 -0.31,1.87 -5.51,1.87 h -162.89 c -5.2,0 -5.55,-0.39 -5.55,-1.87 0,-1.1 0.75,-2.62 1.1,-3.32 l 79.41,-159.22 c 1.84,-2.93 2.62,-4.42 6.29,-4.42 4.06,0 4.81,1.49 6.68,4.42 z m -143.67,-11.84 h 129.3 l -64.3,-129.61 z"
         style="fill:#000000;fill-opacity:1;fill-rule:nonzero;stroke:none"
         id="path72"
         inkscape:connector-curvature="0" /><path
         d="m 1582.23,2772.89 h -142.54 v -11.05 h 25.47 v -138.13 h -25.47 v -11.13 c 8.83,0.78 32.85,0.78 43.2,0.78 11.45,0 36.95,0 47.66,-0.78 v 11.13 h -32.11 v 63.52 h 11.76 c 22.92,0 24.8,-9.96 24.8,-27.35 h 11.05 v 66.1 H 1535 c 0,-17.35 -1.88,-27.7 -24.8,-27.7 h -11.76 v 63.56 h 33.24 c 37.66,0 43.2,-18.09 46.87,-45.82 h 11.1 z"
         style="fill:#000000;fill-opacity:1;fill-rule:nonzero;stroke:none"
         id="path74"
         inkscape:connector-curvature="0" /><path
         d="m 1641.52,2782.3 h 16.6 c 3.36,0 5.2,0 5.2,3.68 0,2.18 -1.84,2.18 -4.84,2.18 h -15.47 l 5.9,24.42 c 0.35,0.7 0.74,1.83 0.74,2.19 0,3.32 -2.62,5.54 -5.94,5.54 -4.02,0 -6.25,-2.93 -7.73,-7.03 -1.1,-4.41 1.09,3.71 -6.29,-25.12 h -16.6 c -2.97,0 -5.16,0 -5.16,-3.63 0,-2.23 1.84,-2.23 4.77,-2.23 h 15.54 l -9.65,-38.82 c -1.09,-4.03 -2.54,-9.96 -2.54,-12.19 0,-9.57 8.48,-15.47 17.7,-15.47 18.48,0 28.83,22.89 28.83,25.12 0,2.18 -2.23,2.18 -2.58,2.18 -2.23,0 -2.23,-0.35 -3.71,-3.32 -4.45,-10.31 -12.89,-19.57 -21.8,-19.57 -3.71,0 -5.94,2.23 -5.94,8.13 0,1.48 0.79,5.16 1.14,6.64 z"
         style="fill:#000000;fill-opacity:1;fill-rule:nonzero;stroke:none"
         id="path76"
         inkscape:connector-curvature="0" /><path
         d="m 1742.93,2731.41 c 0,8.47 0,40.62 -31.02,40.62 -30.66,0 -30.66,-32.15 -30.66,-40.62 0,-8.52 0,-40.28 30.66,-40.28 31.02,0 31.02,31.76 31.02,40.28 z m -31.02,-36.18 c -4.06,0 -14.06,1.45 -16.99,13.29 -1.83,6.25 -1.83,14.76 -1.83,24.33 0,8.91 0,17.03 1.83,23.67 2.93,9.96 12.19,11.8 16.99,11.8 8.83,0 15.16,-4.41 17.35,-12.89 1.83,-5.94 1.83,-15.55 1.83,-22.58 0,-8.08 0,-17.69 -1.83,-24.73 -2.97,-11.44 -12.54,-12.89 -17.35,-12.89 z"
         style="fill:#000000;fill-opacity:1;fill-rule:nonzero;stroke:none"
         id="path78"
         inkscape:connector-curvature="0" /><path
         d="m 1840,2754.61 h 50.62 c 2.19,0 5.9,0 5.9,3.67 0,4.45 -3.71,4.45 -5.9,4.45 H 1840 v 50.55 c 0,1.88 0,5.94 -3.71,5.94 -4.02,0 -4.02,-3.71 -4.02,-5.94 v -50.55 h -50.63 c -2.23,0 -6.25,0 -6.25,-4.1 0,-4.02 3.71,-4.02 6.25,-4.02 h 50.63 v -50.63 c 0,-2.22 0,-6.25 3.71,-6.25 4.02,0 4.02,4.03 4.02,6.25 z"
         style="fill:#000000;fill-opacity:1;fill-rule:nonzero;stroke:none"
         id="path80"
         inkscape:connector-curvature="0" /><path
         d="m 1988.67,2816.99 c 1.1,4.81 1.45,5.2 5.16,5.55 0.74,0 6.29,0 9.61,0 10.35,0 14.37,0 18.47,-1.13 7.35,-2.19 7.74,-7 7.74,-12.89 0,-2.58 0,-4.81 -1.1,-13.32 l -0.39,-1.84 c 0,-1.84 1.1,-2.58 2.97,-2.58 2.58,0 2.58,1.49 2.97,4.06 l 4.42,31.41 c 0,2.19 -1.84,2.19 -4.81,2.19 H 1932.5 c -4.06,0 -4.41,0 -5.51,-3.32 l -10.74,-29.14 c 0,-0.78 -0.7,-2.23 -0.7,-2.97 0,-0.74 0.31,-2.23 2.93,-2.23 2.18,0 2.18,0.74 3.32,4.06 9.61,26.25 15.15,27.7 40.27,27.7 h 6.64 c 5.2,0 5.2,0 5.2,-1.45 0,0 0,-1.13 -0.79,-3.36 l -21.79,-86.75 c -1.45,-5.94 -1.84,-7.82 -19.18,-7.82 -5.94,0 -7.38,0 -7.38,-3.67 0,-0.35 0.35,-2.22 2.93,-2.22 4.45,0 9.64,0.39 14.06,0.39 4.8,0 9.57,0.35 14.02,0.35 4.81,0 10.35,0 15.12,-0.35 4.45,0 9.26,-0.39 13.67,-0.39 1.48,0 3.71,0 3.71,3.71 0,2.18 -1.48,2.18 -6.64,2.18 -2.97,0 -6.29,0.39 -9.61,0.39 -5.55,0.4 -5.9,1.1 -5.9,2.93 0,1.49 0,1.49 0.75,4.11 z"
         style="fill:#000000;fill-opacity:1;fill-rule:nonzero;stroke:none"
         id="path82"
         inkscape:connector-curvature="0" /><path
         d="m 1641.48,2619.65 h 16.64 c 3.33,0 5.16,0 5.16,3.71 0,2.19 -1.83,2.19 -4.8,2.19 h -15.51 l 5.9,24.41 c 0.39,0.7 0.74,1.84 0.74,2.19 0,3.32 -2.58,5.55 -5.9,5.55 -4.06,0 -6.29,-2.97 -7.77,-7.04 -1.1,-4.41 1.13,3.72 -6.25,-25.11 h -16.64 c -2.93,0 -5.16,0 -5.16,-3.67 0,-2.23 1.84,-2.23 4.81,-2.23 h 15.5 l -9.61,-38.79 c -1.13,-4.06 -2.57,-9.96 -2.57,-12.19 0,-9.61 8.47,-15.51 17.73,-15.51 18.48,0 28.79,22.89 28.79,25.12 0,2.19 -2.19,2.19 -2.58,2.19 -2.23,0 -2.23,-0.31 -3.71,-3.32 -4.41,-10.31 -12.89,-19.57 -21.8,-19.57 -3.67,0 -5.9,2.22 -5.9,8.12 0,1.49 0.75,5.2 1.14,6.68 z"
         style="fill:#000000;fill-opacity:1;fill-rule:nonzero;stroke:none"
         id="path84"
         inkscape:connector-curvature="0" /><path
         d="m 1742.93,2568.75 c 0,8.52 0,40.66 -31.02,40.66 -30.66,0 -30.66,-32.14 -30.66,-40.66 0,-8.48 0,-40.23 30.66,-40.23 31.02,0 31.02,31.75 31.02,40.23 z m -31.02,-36.17 c -4.06,0 -14.06,1.48 -16.99,13.28 -1.83,6.29 -1.83,14.8 -1.83,24.37 0,8.87 0,17 1.83,23.64 2.93,10 12.19,11.83 16.99,11.83 8.83,0 15.16,-4.41 17.35,-12.93 1.83,-5.89 1.83,-15.5 1.83,-22.54 0,-8.12 0,-17.69 -1.83,-24.72 -2.97,-11.45 -12.54,-12.93 -17.35,-12.93 z"
         style="fill:#000000;fill-opacity:1;fill-rule:nonzero;stroke:none"
         id="path86"
         inkscape:connector-curvature="0" /><path
         d="m 2231.21,2758.12 c 1.49,2.93 2.58,5.2 19.57,5.2 h 4.42 v 11.06 c -8.83,-0.36 -20.32,-0.71 -26.61,-0.71 -9.21,0 -21.79,0 -30.62,0.71 v -11.06 c 1.83,0 20.66,0 20.66,-2.97 0,-1.13 -0.7,-2.23 -1.09,-2.93 l -47.66,-107.15 -50.19,113.05 h 22.11 v 11.06 c -8.83,-0.71 -31.37,-0.71 -41.72,-0.71 -8.87,0 -28.79,0 -36.96,0.71 v -11.06 h 21.45 l 65,-146.64 c 1.88,-4.1 2.97,-5.94 9.61,-5.94 3.71,0 6.64,0 9.22,5.55 z"
         style="fill:#000000;fill-opacity:1;fill-rule:nonzero;stroke:none"
         id="path88"
         inkscape:connector-curvature="0" /><path
         d="m 2492.62,2689.8 c 3.67,0 8.12,0 8.12,4.42 0,4.84 -4.45,4.84 -7.77,4.84 h -141.09 c -3.33,0 -7.74,0 -7.74,-4.84 0,-4.42 4.41,-4.42 7.74,-4.42 z m 0.35,-45.78 c 3.32,0 7.77,0 7.77,4.81 0,4.41 -4.45,4.41 -8.12,4.41 h -140.74 c -3.33,0 -7.74,0 -7.74,-4.41 0,-4.81 4.41,-4.81 7.74,-4.81 z"
         style="fill:#000000;fill-opacity:1;fill-rule:nonzero;stroke:none"
         id="path90"
         inkscape:connector-curvature="0" /><path
         d="m 2753.01,2756.29 c 0,5.16 0.39,5.55 7.03,6.25 5.51,0.78 5.9,0.78 12.54,0.78 h 5.94 v 11.06 c -8.87,-0.71 -22.19,-0.71 -31.45,-0.71 -9.96,0 -22.11,0 -32.11,0.71 v -11.06 h 5.9 c 4.45,0 8.52,-0.39 12.58,-0.78 6.99,-0.7 6.99,-1.09 6.99,-6.25 v -88.67 c 0,-35.08 -25.47,-46.53 -51.33,-46.53 -40.98,0 -41.76,31.06 -41.76,43.95 v 98.28 h 25.51 v 11.06 c -8.87,-0.71 -31.76,-0.71 -42.11,-0.71 -9.96,0 -33.24,0 -42.11,0.71 v -11.06 h 25.47 v -96.41 c 0,-31.05 25.51,-56.87 74.3,-56.87 44.69,0 64.61,27.66 64.61,56.48 z"
         style="fill:#000000;fill-opacity:1;fill-rule:nonzero;stroke:none"
         id="path92"
         inkscape:connector-curvature="0" /><path
         d="m 2900.78,2689.06 c 1.49,1.1 2.97,2.23 2.97,4.46 0,1.44 -1.13,2.53 -1.84,3.32 l -53.55,66.48 h 48.01 c 35.08,0 55.78,-6.68 60.9,-45.82 h 11.13 l -7.42,56.88 h -150.67 c -4.84,0 -7.42,0 -7.42,-5.9 0,-2.23 0,-2.62 2.23,-5.16 l 67.22,-82.73 -66.87,-59.11 c -1.09,-1.48 -2.58,-2.57 -2.58,-4.8 0,-4.1 4.1,-4.1 7.42,-4.1 h 150.67 l 7.42,61.37 h -11.13 c -5.12,-40.67 -28.4,-45.83 -61.68,-45.83 h -63.13 z"
         style="fill:#000000;fill-opacity:1;fill-rule:nonzero;stroke:none"
         id="path94"
         inkscape:connector-curvature="0" /><path
         d="m 907.969,2096.52 c 338.831,157.66 729.221,245.51 1122.381,252.43 399.03,7.07 800,-69.26 1151.17,-219.11"
         style="fill:none;stroke:#000000;stroke-width:11.82040024;stroke-linecap:butt;stroke-linejoin:miter;stroke-miterlimit:4;stroke-dasharray:none;stroke-opacity:1"
         id="path96"
         inkscape:connector-curvature="0" /><path
         d="m 3181.68,2129.53 -57.19,-17.03 149.89,-33.09 -109.77,107.27 z"
         style="fill:#000000;fill-opacity:1;fill-rule:nonzero;stroke:none"
         id="path98"
         inkscape:connector-curvature="0" /><path
         d="m 3181.68,2129.53 -57.19,-17.03 149.89,-33.09 -109.77,107.27 z"
         style="fill:none;stroke:#000000;stroke-width:11.24300003;stroke-linecap:butt;stroke-linejoin:miter;stroke-miterlimit:4;stroke-dasharray:none;stroke-opacity:1"
         id="path100"
         inkscape:connector-curvature="0" /><path
         d="m 1082.5,243.09 c 0.39,0.699 1.13,2.219 1.13,3.32 0,1.481 -0.39,1.871 -5.62,1.871 H 913.012 c -5.203,0 -5.59,-0.39 -5.59,-1.871 0,-1.101 0.738,-2.621 1.098,-3.32 L 988.98,81.8008 c 1.84,-2.9688 2.622,-4.5 6.329,-4.5 4.14,0 4.891,1.5312 6.761,4.5 z M 936.949,231.051 H 1067.89 L 1002.81,99.7695 Z"
         style="fill:#000000;fill-opacity:1;fill-rule:nonzero;stroke:none"
         id="path102"
         inkscape:connector-curvature="0" /><path
         d="m 1248.75,247.539 h -144.41 v -11.207 h 25.78 V 96.4102 h -25.78 v -11.25 c 8.98,0.7382 33.32,0.7382 43.75,0.7382 11.64,0 37.42,0 48.28,-0.7382 v 11.25 h -32.54 v 64.3278 h 11.95 c 23.2,0 25.08,-10.078 25.08,-27.648 h 11.21 v 66.949 h -11.21 c 0,-17.578 -1.88,-28.09 -25.08,-28.09 h -11.95 v 64.383 h 33.67 c 38.16,0 43.75,-18.363 47.5,-46.41 h 11.25 z"
         style="fill:#000000;fill-opacity:1;fill-rule:nonzero;stroke:none"
         id="path104"
         inkscape:connector-curvature="0" /><path
         d="m 1308.79,257.031 h 16.8 c 3.39,0 5.27,0 5.27,3.75 0,2.231 -1.88,2.231 -4.88,2.231 h -15.71 l 5.98,24.718 c 0.35,0.75 0.74,1.879 0.74,2.27 0,3.359 -2.61,5.59 -5.97,5.59 -4.14,0 -6.37,-3.008 -7.86,-7.11 -1.13,-4.5 1.14,3.75 -6.36,-25.468 h -16.84 c -3.01,0 -5.23,0 -5.23,-3.711 0,-2.27 1.87,-2.27 4.84,-2.27 h 15.74 l -9.72,-39.301 c -1.14,-4.101 -2.62,-10.07 -2.62,-12.339 0,-9.731 8.59,-15.661 17.97,-15.661 18.71,0 29.14,23.161 29.14,25.43 0,2.18 -2.23,2.18 -2.58,2.18 -2.27,0 -2.27,-0.309 -3.75,-3.32 -4.49,-10.5 -13.09,-19.801 -22.07,-19.801 -3.75,0 -5.98,2.23 -5.98,8.203 0,1.488 0.75,5.238 1.1,6.719 z"
         style="fill:#000000;fill-opacity:1;fill-rule:nonzero;stroke:none"
         id="path106"
         inkscape:connector-curvature="0" /><path
         d="m 1411.52,205.512 c 0,8.59 0,41.168 -31.44,41.168 -31.06,0 -31.06,-32.578 -31.06,-41.168 0,-8.602 0,-40.782 31.06,-40.782 31.44,0 31.44,32.18 31.44,40.782 z m -31.44,-36.68 c -4.1,0 -14.22,1.52 -17.23,13.469 -1.83,6.371 -1.83,14.969 -1.83,24.73 0,8.989 0,17.188 1.83,23.91 3.01,10.11 12.38,11.989 17.23,11.989 8.98,0 15.31,-4.489 17.58,-13.09 1.87,-6.008 1.87,-15.738 1.87,-22.809 0,-8.281 0,-17.972 -1.87,-25.121 -3.01,-11.558 -12.7,-13.078 -17.58,-13.078 z"
         style="fill:#000000;fill-opacity:1;fill-rule:nonzero;stroke:none"
         id="path108"
         inkscape:connector-curvature="0" /><path
         d="m 1509.8,228.98 h 51.29 c 2.27,0 5.98,0 5.98,3.75 0,4.5 -3.71,4.5 -5.98,4.5 h -51.29 v 51.25 c 0,1.829 0,5.969 -3.71,5.969 -4.14,0 -4.14,-3.75 -4.14,-5.969 v -51.25 h -51.25 c -2.22,0 -6.32,0 -6.32,-4.14 0,-4.11 3.74,-4.11 6.32,-4.11 h 51.25 v -51.25 c 0,-2.218 0,-6.359 3.75,-6.359 4.1,0 4.1,4.141 4.1,6.359 z"
         style="fill:#000000;fill-opacity:1;fill-rule:nonzero;stroke:none"
         id="path110"
         inkscape:connector-curvature="0" /><path
         d="m 1660.39,292.23 c 1.13,4.84 1.52,5.231 5.23,5.579 0.79,0 6.37,0 9.77,0 10.43,0 14.53,0 18.67,-1.129 7.5,-2.231 7.85,-7.071 7.85,-13.09 0,-2.61 0,-4.84 -1.13,-13.43 l -0.35,-1.922 c 0,-1.828 1.13,-2.578 2.97,-2.578 2.65,0 2.65,1.488 3.01,4.11 l 4.49,31.789 c 0,2.23 -1.88,2.23 -4.85,2.23 h -102.53 c -4.11,0 -4.5,0 -5.59,-3.359 l -10.86,-29.532 c 0,-0.738 -0.74,-2.269 -0.74,-3.007 0,-0.743 0.35,-2.231 2.97,-2.231 2.26,0 2.26,0.75 3.4,4.11 9.72,26.562 15.31,28.039 40.78,28.039 h 6.72 c 5.23,0 5.23,0 5.23,-1.477 0,0 0,-1.133 -0.78,-3.363 l -22.07,-87.93 c -1.49,-6.019 -1.84,-7.848 -19.46,-7.848 -5.93,0 -7.46,0 -7.46,-3.75 0,-0.351 0.39,-2.269 2.97,-2.269 4.49,0 9.73,0.387 14.22,0.387 4.88,0 9.73,0.39 14.22,0.39 4.88,0 10.51,0 15.35,-0.39 4.49,0 9.38,-0.387 13.87,-0.387 1.48,0 3.71,0 3.71,3.75 0,2.269 -1.48,2.269 -6.72,2.269 -3.01,0 -6.37,0.391 -9.73,0.391 -5.62,0.348 -5.97,1.129 -5.97,2.969 0,1.48 0,1.48 0.74,4.097 z"
         style="fill:#000000;fill-opacity:1;fill-rule:nonzero;stroke:none"
         id="path112"
         inkscape:connector-curvature="0" /><path
         d="m 1308.75,92.3008 h 16.84 c 3.36,0 5.23,0 5.23,3.75 0,2.2305 -1.87,2.2305 -4.88,2.2305 h -15.71 l 6.02,24.7307 c 0.35,0.738 0.7,1.828 0.7,2.218 0,3.36 -2.57,5.629 -5.93,5.629 -4.14,0 -6.41,-3.007 -7.9,-7.109 -1.09,-4.488 1.14,3.711 -6.32,-25.4687 h -16.84 c -3.01,0 -5.23,0 -5.23,-3.75 0,-2.2305 1.83,-2.2305 4.84,-2.2305 h 15.7 l -9.72,-39.2891 c -1.1,-4.1015 -2.62,-10.082 -2.62,-12.3125 0,-9.7578 8.59,-15.7383 17.97,-15.7383 18.71,0 29.18,23.1993 29.18,25.4688 0,2.2305 -2.27,2.2305 -2.62,2.2305 -2.23,0 -2.23,-0.3907 -3.75,-3.3594 -4.49,-10.5117 -13.09,-19.8516 -22.07,-19.8516 -3.71,0 -5.98,2.2696 -5.98,8.211 0,1.5195 0.75,5.2695 1.14,6.75 z"
         style="fill:#000000;fill-opacity:1;fill-rule:nonzero;stroke:none"
         id="path114"
         inkscape:connector-curvature="0" /><path
         d="m 1411.52,40.7813 c 0,8.5976 0,41.1679 -31.44,41.1679 -31.06,0 -31.06,-32.5703 -31.06,-41.1679 0,-8.6329 0,-40.7813 31.06,-40.7813 31.44,0 31.44,32.1484 31.44,40.7813 z M 1380.08,4.10156 c -4.1,0 -14.22,1.48828 -17.23,13.48044 -1.83,6.3672 -1.83,14.9571 -1.83,24.6875 0,8.9805 0,17.1797 1.83,23.9414 3.01,10.1211 12.38,11.9493 17.23,11.9493 8.98,0 15.31,-4.4883 17.58,-13.0782 1.87,-5.9804 1.87,-15.7031 1.87,-22.8125 0,-8.25 0,-17.9687 -1.87,-25.039 -3.01,-11.64066 -12.7,-13.12894 -17.58,-13.12894 z"
         style="fill:#000000;fill-opacity:1;fill-rule:nonzero;stroke:none"
         id="path116"
         inkscape:connector-curvature="0" /><path
         d="m 1841.41,175.309 c 0,7.152 -5.63,12.781 -12.35,12.781 -7.11,0 -12.73,-5.629 -12.73,-12.781 0,-6.719 5.62,-12.688 12.73,-12.688 6.72,0 12.35,5.969 12.35,12.688 z m 0,-77.4184 c 0,6.7184 -5.63,12.7304 -12.35,12.7304 -7.11,0 -12.73,-6.012 -12.73,-12.7304 0,-7.1093 5.62,-12.7304 12.73,-12.7304 6.72,0 12.35,5.6211 12.35,12.7304 z"
         style="fill:#000000;fill-opacity:1;fill-rule:nonzero;stroke:none"
         id="path118"
         inkscape:connector-curvature="0" /><path
         d="m 2030.04,229.961 c 1.87,6.719 2.62,8.238 5.58,8.949 2.27,0.391 10.12,0.391 14.97,0.391 24.33,0 34.8,-0.75 34.8,-19.422 0,-3.789 -0.74,-13.117 -1.87,-19.098 0,-1.133 -0.75,-3.75 -0.75,-4.492 0,-1.519 0.75,-3.359 3.01,-3.359 2.62,0 3.01,1.84 3.71,5.59 l 6.37,41.519 c 0.39,1.133 0.39,3.359 0.39,4.141 0,2.621 -2.27,2.621 -6.37,2.621 h -132.46 c -5.58,0 -5.94,-0.391 -7.85,-4.891 l -14.22,-41.871 c 0,-0.391 -1.44,-3.75 -1.44,-4.488 0,-1.141 1.44,-2.621 2.97,-2.621 2.26,0 2.57,1.48 4.1,5.191 12.73,37.078 19.1,41.18 54.25,41.18 h 9.34 c 6.76,0 6.76,-0.75 6.76,-2.969 0,-1.133 -0.74,-4.141 -1.13,-4.883 l -31.8,-127.578 c -2.27,-8.6015 -2.97,-11.2108 -28.44,-11.2108 -8.59,0 -10.12,0 -10.12,-4.5 0,-3 2.66,-3 4.11,-3 6.4,0 13.12,0.3906 19.49,0.3906 6.72,0 13.83,0.3476 20.58,0.3476 6.72,0 13.09,-0.3476 19.81,-0.3476 6.76,0 13.83,-0.3906 20.58,-0.3906 2.23,0 5.28,0 5.28,4.8789 0,2.6211 -1.92,2.6211 -8.28,2.6211 -5.59,0 -8.99,0 -14.93,0.3515 -7.14,0.7383 -8.98,1.5196 -8.98,5.2266 0,0.3906 0,1.5312 1.09,4.8827 z"
         style="fill:#000000;fill-opacity:1;fill-rule:nonzero;stroke:none"
         id="path120"
         inkscape:connector-curvature="0" /><path
         d="m 2133.52,89.7695 23.16,23.1995 c 3.79,1.133 8.28,1.133 15.35,1.133 v 9.378 c -5.23,-0.39 -10.86,-0.75 -16.05,-0.75 -5.63,0 -17.23,0.75 -18.71,0.75 v -9.378 c 2.22,0 3.35,-0.352 4.49,-1.133 l -15.35,-15.6682 -16.45,16.8012 h 4.49 v 9.378 c -0.74,0 -14.22,-0.75 -20.97,-0.75 -6.33,0 -12.7,0.36 -19.1,0.75 v -9.378 h 12.77 l 27.3,-28.4418 -23.94,-24.2891 c -2.27,-1.8828 -2.62,-2.2695 -7.5,-2.6211 -3.01,0 -8.63,0 -9.34,0 v -9.3711 c 5.2,0.3906 10.82,0.7813 16.06,0.7813 4.49,0 16.44,-0.7813 18.36,-0.7813 V 58.75 c -2.62,0 -3.36,0.3516 -4.5,1.1289 l 18.32,17.9297 18.32,-19.0586 h -4.49 v -9.3711 c 0.39,0 13.87,0.7813 21.33,0.7813 6.37,0 12.73,-0.3907 18.71,-0.7813 V 58.75 h -12.34 z"
         style="fill:#000000;fill-opacity:1;fill-rule:nonzero;stroke:none"
         id="path122"
         inkscape:connector-curvature="0" /><path
         d="m 2253.55,63.6719 c 0,8.5976 0,41.1681 -31.48,41.1681 -31.05,0 -31.05,-32.5705 -31.05,-41.1681 0,-8.5899 0,-40.7813 31.05,-40.7813 31.48,0 31.48,32.1914 31.48,40.7813 z m -31.48,-36.6836 c -4.1,0 -14.18,1.5312 -17.19,13.4805 -1.87,6.371 -1.87,14.9609 -1.87,24.7304 0,8.9414 0,17.1797 1.87,23.9414 3.01,10.0782 12.39,11.9494 17.19,11.9494 8.98,0 15.35,-4.4884 17.62,-13.0783 1.87,-6.0234 1.87,-15.7422 1.87,-22.8125 0,-8.25 0,-17.9687 -1.87,-25.1172 -3.01,-11.5625 -12.74,-13.0937 -17.62,-13.0937 z"
         style="fill:#000000;fill-opacity:1;fill-rule:nonzero;stroke:none"
         id="path124"
         inkscape:connector-curvature="0" /><path
         d="m 2438.24,223.238 c 2.62,9.731 6.72,16.801 25.82,17.582 1.14,0 4.1,0.352 4.1,4.84 0,0 0,2.621 -2.96,2.621 -7.9,0 -16.49,-0.742 -24.34,-0.742 -8.24,0 -17.23,0.742 -25.08,0.742 -1.48,0 -4.1,0 -4.1,-4.883 0,-2.578 2.23,-2.578 4.1,-2.578 13.87,-0.39 16.45,-5.269 16.45,-10.511 0,-0.739 -0.75,-4.489 -0.75,-4.84 L 2409.8,140.16 c -7.85,-32.191 -35.54,-52.7381 -59.49,-52.7381 -16.09,0 -28.83,10.4687 -28.83,31.0581 0,0.352 0,7.852 2.66,18.321 l 22.81,93.16 c 2.23,8.59 2.62,10.859 20.2,10.859 6.37,0 8.24,0 8.24,4.84 0,2.621 -2.62,2.621 -3.4,2.621 -6.72,0 -23.9,-0.742 -30.66,-0.742 -6.76,0 -23.95,0.742 -30.67,0.742 -1.87,0 -4.49,0 -4.49,-4.883 0,-2.578 1.84,-2.578 6.72,-2.578 0.39,0 4.88,0 8.99,-0.39 4.1,-0.739 6.36,-0.739 6.36,-4.098 0,-1.133 -2.62,-11.25 -4.1,-16.844 l -5.27,-20.968 c -2.23,-9.34 -13.44,-54.258 -14.57,-59.11 -1.53,-6.32 -1.53,-10.07 -1.53,-13.859 0,-28.7893 21.72,-45.6291 46.8,-45.6291 29.96,0 59.49,26.9571 67.31,58.3981 z"
         style="fill:#000000;fill-opacity:1;fill-rule:nonzero;stroke:none"
         id="path126"
         inkscape:connector-curvature="0" /><path
         d="m 2740.9,140.16 c -13.09,-10.121 -19.45,-19.851 -21.33,-23.211 -10.86,-16.437 -12.73,-31.3982 -12.73,-31.3982 0,-3.0117 3,-3.0117 4.88,-3.0117 3.75,0 4.14,0.3906 5.23,4.8828 5.24,23.1991 19.46,43.3981 46.41,54.2581 2.97,1.129 3.71,1.441 3.71,3.359 0,1.481 -1.48,2.262 -1.84,2.582 -10.85,3.789 -39.68,15.738 -48.67,55.777 -0.7,3.012 -1.09,3.711 -4.84,3.711 -1.88,0 -4.88,0 -4.88,-2.968 0,-0.391 2.26,-15.352 11.99,-31.411 4.88,-7.109 11.95,-15.351 22.07,-23.199 h -177.35 c -4.1,0 -8.59,0 -8.59,-4.492 0,-4.879 4.49,-4.879 8.59,-4.879 z"
         style="fill:#000000;fill-opacity:1;fill-rule:nonzero;stroke:none"
         id="path128"
         inkscape:connector-curvature="0" /><path
         d="m 2948.44,229.961 c 1.87,6.719 2.61,8.238 5.62,8.949 2.27,0.391 10.08,0.391 14.96,0.391 24.3,0 34.77,-0.75 34.77,-19.422 0,-3.789 -0.74,-13.117 -1.84,-19.098 0,-1.133 -0.74,-3.75 -0.74,-4.492 0,-1.519 0.74,-3.359 2.97,-3.359 2.62,0 2.97,1.84 3.75,5.59 l 6.37,41.519 c 0.35,1.133 0.35,3.359 0.35,4.141 0,2.621 -2.23,2.621 -6.37,2.621 h -132.42 c -5.63,0 -5.98,-0.391 -7.85,-4.891 l -14.22,-41.871 c 0,-0.391 -1.52,-3.75 -1.52,-4.488 0,-1.141 1.52,-2.621 3,-2.621 2.23,0 2.62,1.48 4.14,5.191 12.7,37.078 19.07,41.18 54.22,41.18 h 9.38 c 6.72,0 6.72,-0.75 6.72,-2.969 0,-1.133 -0.75,-4.141 -1.1,-4.883 L 2896.8,103.871 c -2.23,-8.6015 -3.01,-11.2108 -28.44,-11.2108 -8.59,0 -10.08,0 -10.08,-4.5 0,-3 2.62,-3 4.1,-3 6.37,0 13.09,0.3906 19.46,0.3906 6.71,0 13.86,0.3476 20.58,0.3476 6.72,0 13.13,-0.3476 19.85,-0.3476 6.71,0 13.82,-0.3906 20.58,-0.3906 2.23,0 5.2,0 5.2,4.8789 0,2.6211 -1.84,2.6211 -8.21,2.6211 -5.62,0 -8.98,0 -15,0.3515 -7.07,0.7383 -8.98,1.5196 -8.98,5.2266 0,0.3906 0,1.5312 1.13,4.8827 z"
         style="fill:#000000;fill-opacity:1;fill-rule:nonzero;stroke:none"
         id="path130"
         inkscape:connector-curvature="0" /><path
         d="m 3051.91,89.7695 23.21,23.1995 c 3.71,1.133 8.2,1.133 15.35,1.133 v 9.378 c -5.24,-0.39 -10.86,-0.75 -16.09,-0.75 -5.59,0 -17.23,0.75 -18.72,0.75 v -9.378 c 2.27,0 3.4,-0.352 4.46,-1.133 l -15.32,-15.6682 -16.44,16.8012 h 4.45 v 9.378 c -0.7,0 -14.18,-0.75 -20.93,-0.75 -6.37,0 -12.7,0.36 -19.07,0.75 v -9.378 h 12.7 l 27.3,-28.4418 -23.9,-24.2891 c -2.27,-1.8828 -2.62,-2.2695 -7.5,-2.6211 -2.97,0 -8.6,0 -9.34,0 v -9.3711 c 5.23,0.3906 10.86,0.7813 16.09,0.7813 4.5,0 16.45,-0.7813 18.32,-0.7813 V 58.75 c -2.61,0 -3.36,0.3516 -4.49,1.1289 l 18.36,17.9297 18.32,-19.0586 h -4.49 v -9.3711 c 0.39,0 13.83,0.7813 21.29,0.7813 6.41,0 12.73,-0.3907 18.75,-0.7813 V 58.75 h -12.34 z"
         style="fill:#000000;fill-opacity:1;fill-rule:nonzero;stroke:none"
         id="path132"
         inkscape:connector-curvature="0" /><path
         d="m 3263.52,223.238 c 2.65,9.731 6.75,16.801 25.82,17.582 1.13,0 4.14,0.352 4.14,4.84 0,0 0,2.621 -3.01,2.621 -7.85,0 -16.49,-0.742 -24.3,-0.742 -8.28,0 -17.26,0.742 -25.08,0.742 -1.52,0 -4.14,0 -4.14,-4.883 0,-2.578 2.23,-2.578 4.14,-2.578 13.83,-0.39 16.41,-5.269 16.41,-10.511 0,-0.739 -0.7,-4.489 -0.7,-4.84 l -21.72,-85.309 c -7.85,-32.191 -35.55,-52.7381 -59.49,-52.7381 -16.06,0 -28.79,10.4687 -28.79,31.0581 0,0.352 0,7.852 2.61,18.321 l 22.82,93.16 c 2.26,8.59 2.65,10.859 20.23,10.859 6.33,0 8.2,0 8.2,4.84 0,2.621 -2.61,2.621 -3.36,2.621 -6.71,0 -23.94,-0.742 -30.7,-0.742 -6.72,0 -23.9,0.742 -30.66,0.742 -1.84,0 -4.49,0 -4.49,-4.883 0,-2.578 1.87,-2.578 6.75,-2.578 0.39,0 4.89,0 8.99,-0.39 4.1,-0.739 6.33,-0.739 6.33,-4.098 0,-1.133 -2.62,-11.25 -4.11,-16.844 l -5.23,-20.968 c -2.23,-9.34 -13.48,-54.258 -14.57,-59.11 -1.52,-6.32 -1.52,-10.07 -1.52,-13.859 0,-28.7893 21.68,-45.6291 46.79,-45.6291 29.92,0 59.5,26.9571 67.31,58.3981 z"
         style="fill:#000000;fill-opacity:1;fill-rule:nonzero;stroke:none"
         id="path134"
         inkscape:connector-curvature="0" /><path
         d="m 584.609,1421.09 20.352,22.82 c 2.461,2.46 3.559,3.59 17.848,3.59 v 8.2 c -6.008,-0.23 -15.079,-0.54 -15.93,-0.54 -4.379,0 -13.168,0.54 -18.129,0.54 v -8.2 c 2.461,0 4.648,-0.31 6.559,-1.45 -0.508,-1.09 -0.508,-1.6 -1.329,-2.14 l -14.57,-16.53 -17.301,20.12 h 7.11 v 8.2 c -4.649,0 -15.668,-0.54 -21.41,-0.54 -5.539,0 -13.469,0.54 -19.258,0.54 v -8.2 h 12.66 l 27.23,-32.19 -23.089,-25.86 c -2.774,-3.32 -9.102,-3.32 -17.622,-3.32 v -8.2 c 6.059,0.27 15.391,0.55 16.18,0.55 4.449,0 14.61,-0.28 17.891,-0.55 v 8.2 c -3.012,0 -6.332,0.86 -6.332,1.99 0,0.24 0,0.24 1.09,1.65 l 17.07,19.21 19.223,-22.85 h -6.872 v -8.2 c 4.68,0.27 15.43,0.55 21.168,0.55 5.473,0 13.473,-0.28 19.223,-0.55 v 8.2 H 614.02 Z"
         style="fill:#000000;fill-opacity:1;fill-rule:nonzero;stroke:none"
         id="path136"
         inkscape:connector-curvature="0" /><path
         d="m 693.48,1390.66 c 0,13.52 -1.64,23.4 -7.191,31.88 -3.789,5.51 -11.519,10.47 -21.09,10.47 -28.64,0 -28.64,-33.56 -28.64,-42.35 0,-8.78 0,-41.52 28.64,-41.52 28.281,0 28.281,32.74 28.281,41.52 z m -28.281,-37.93 c -5.789,0 -13.211,3.29 -15.711,13.21 -1.636,7.15 -1.636,17.3 -1.636,26.4 0,9.07 0,18.4 1.636,24.96 2.742,9.65 10.473,12.43 15.711,12.43 6.563,0 12.891,-4.14 15.11,-11.29 1.882,-6.6 2.191,-15.39 2.191,-26.1 0,-9.1 0,-18.16 -1.641,-25.86 -2.539,-11.25 -10.738,-13.75 -15.66,-13.75 z"
         style="fill:#000000;fill-opacity:1;fill-rule:nonzero;stroke:none"
         id="path138"
         inkscape:connector-curvature="0" /><path
         d="m 3644.02,1619.61 c 46.33,-10.51 91.57,-25.98 134.65,-46.02 163.67,-76.05 294.1,-220.7 352.89,-391.32"
         style="fill:none;stroke:#000000;stroke-width:13.6566;stroke-linecap:butt;stroke-linejoin:miter;stroke-miterlimit:4;stroke-dasharray:none;stroke-opacity:1"
         id="path140"
         inkscape:connector-curvature="0" /><path
         d="m 3673.32,1629.92 -47.3,-6.17 40,-25.94 c -4.81,11.06 -1.84,24.03 7.3,32.11 z"
         style="fill:#000000;fill-opacity:1;fill-rule:evenodd;stroke:none"
         id="path142"
         inkscape:connector-curvature="0" /><path
         d="m 3673.32,1629.93 -47.3,-6.18 40,-25.94 c -4.81,11.06 -1.84,24.03 7.3,32.12 z"
         style="fill:none;stroke:#000000;stroke-width:2.56061006;stroke-linecap:butt;stroke-linejoin:round;stroke-miterlimit:4;stroke-dasharray:none;stroke-opacity:1"
         id="path144"
         inkscape:connector-curvature="0" /><path
         d="m 3448.44,1798.2 -25.78,57.11 c -1.18,2.31 -1.88,2.31 -2.31,2.31 0,0 -0.94,0 -2.54,-1.17 l -13.83,-10.59 c -1.83,-1.6 -1.83,-1.84 -1.83,-2.31 0,-0.93 0.23,-1.6 1.37,-1.6 0.93,0 3.47,2.07 5.07,3.21 0.71,0.7 3.01,2.3 4.61,3.47 l 29.03,-63.55 c 0.89,-2.31 1.6,-2.31 2.97,-2.31 2.3,0 2.77,0.67 3.71,2.78 l 66.75,138.12 c 0.94,2.07 0.94,2.54 0.94,3.01 0,1.37 -1.17,3.01 -3.01,3.01 -1.13,0 -2.07,-0.94 -3.24,-3.24 z"
         style="fill:#000000;fill-opacity:1;fill-rule:nonzero;stroke:none"
         id="path146"
         inkscape:connector-curvature="0" /><path
         d="m 3513.67,1926.64 h 151.49"
         style="fill:none;stroke:#000000;stroke-width:5.86521006;stroke-linecap:butt;stroke-linejoin:miter;stroke-miterlimit:10;stroke-dasharray:none;stroke-opacity:1"
         id="path148"
         inkscape:connector-curvature="0" /><path
         d="m 3566.17,1852.42 c 5.98,-15.43 13.13,-37.77 15.43,-41.25 2.31,-3.2 3.67,-3.2 7.81,-3.2 h 3.25 c 1.36,0.23 1.6,0.94 1.6,1.37 0,0.46 -0.47,0.93 -0.94,1.4 -1.37,1.6 -2.27,3.91 -3.2,6.68 l -29.92,83.56 c -3.25,8.55 -11.06,10.62 -17.97,10.62 -0.71,0 -2.78,0 -2.78,-1.64 0,-1.13 1.17,-1.6 1.37,-1.6 4.84,-0.7 6.02,-1.6 9.69,-11.76 l 14.06,-39.8 -40.55,-40.32 c -1.6,-1.83 -2.54,-2.53 -2.54,-4.6 0,-2.54 2.07,-4.15 4.38,-4.15 2.3,0 3.71,1.61 4.84,3.01 z"
         style="fill:#000000;fill-opacity:1;fill-rule:nonzero;stroke:none"
         id="path150"
         inkscape:connector-curvature="0" /><path
         d="m 3633.63,1852.97 c 0,2.73 0,2.73 -3.01,2.73 -6.67,-6.44 -15.89,-6.44 -20.03,-6.44 v -3.67 c 2.3,0 9.21,0 14.76,2.77 v -52.27 c 0,-3.47 0,-4.84 -10.15,-4.84 h -3.91 v -3.67 c 1.83,0 14.49,0.43 18.2,0.43 3.21,0 16.1,-0.43 18.4,-0.43 v 3.67 h -3.91 c -10.35,0 -10.35,1.37 -10.35,4.84 z"
         style="fill:#000000;fill-opacity:1;fill-rule:nonzero;stroke:none"
         id="path152"
         inkscape:connector-curvature="0" /><path
         d="m 3716.52,1817.85 c 1.6,-5.97 6.92,-9.88 13.13,-9.88 5.08,0 8.51,3.44 10.82,8.05 2.54,5.31 4.37,14.29 4.37,14.53 0,1.6 -1.13,1.6 -1.6,1.6 -1.6,0 -1.6,-0.7 -2.07,-2.77 -2.07,-8.29 -4.84,-18.21 -11.05,-18.21 -3.01,0 -4.61,1.88 -4.61,6.68 0,3.24 1.83,10.16 3.01,15.43 l 4.14,15.9 c 0.43,2.07 1.83,7.62 2.54,9.92 0.66,3.44 2.07,8.95 2.07,9.88 0,2.54 -2.07,3.91 -4.18,3.91 -0.67,0 -4.57,-0.23 -5.75,-5.04 -2.77,-10.82 -9.22,-36.64 -11.05,-44.22 -0.24,-0.7 -5.98,-12.46 -16.8,-12.46 -7.61,0 -8.98,6.68 -8.98,11.99 0,8.29 4.14,19.81 7.81,29.93 1.88,4.61 2.54,6.68 2.54,9.45 0,6.44 -4.61,11.99 -11.95,11.99 -14.07,0 -19.34,-21.44 -19.34,-22.58 0,-1.6 1.37,-1.6 1.6,-1.6 1.6,0 1.6,0.43 2.31,2.74 3.67,12.69 9.41,18.2 14.96,18.2 1.36,0 3.67,-0.24 3.67,-4.84 0,-3.44 -1.6,-7.82 -2.54,-9.89 -5.51,-14.76 -8.52,-23.71 -8.52,-30.86 0,-14.06 10.16,-17.73 17.97,-17.73 9.69,0 14.96,6.68 17.5,9.88 z"
         style="fill:#000000;fill-opacity:1;fill-rule:nonzero;stroke:none"
         id="path154"
         inkscape:connector-curvature="0" /><path
         d="m 3783.55,1852.97 c 0,2.73 0,2.73 -3,2.73 -6.68,-6.44 -15.9,-6.44 -20.04,-6.44 v -3.67 c 2.3,0 9.22,0 14.76,2.77 v -52.27 c 0,-3.47 0,-4.84 -10.15,-4.84 h -3.91 v -3.67 c 1.84,0 14.49,0.43 18.2,0.43 3.21,0 16.1,-0.43 18.4,-0.43 v 3.67 h -3.9 c -10.36,0 -10.36,1.37 -10.36,4.84 z"
         style="fill:#000000;fill-opacity:1;fill-rule:nonzero;stroke:none"
         id="path156"
         inkscape:connector-curvature="0" /><path
         d="m 3305.51,1388.28 -26.02,57.62 c -1.17,2.3 -1.87,2.3 -2.34,2.3 0,0 -0.94,0 -2.54,-1.17 l -13.95,-10.66 c -1.83,-1.64 -1.83,-1.88 -1.83,-2.35 0,-0.9 0.19,-1.6 1.37,-1.6 0.93,0 3.47,2.07 5.11,3.24 0.71,0.71 3.01,2.35 4.65,3.48 l 29.26,-64.1 c 0.94,-2.31 1.64,-2.31 3.01,-2.31 2.34,0 2.81,0.71 3.75,2.78 l 67.34,139.37 c 0.94,2.07 0.94,2.54 0.94,3.01 0,1.41 -1.17,3.01 -3.05,3.01 -1.13,0 -2.07,-0.94 -3.24,-3.24 z"
         style="fill:#000000;fill-opacity:1;fill-rule:nonzero;stroke:none"
         id="path158"
         inkscape:connector-curvature="0" /><path
         d="M 3371.29,1517.85 H 3524.1"
         style="fill:none;stroke:#000000;stroke-width:5.91594982;stroke-linecap:butt;stroke-linejoin:miter;stroke-miterlimit:10;stroke-dasharray:none;stroke-opacity:1"
         id="path160"
         inkscape:connector-curvature="0" /><path
         d="m 3424.26,1442.97 c 6.01,-15.55 13.24,-38.09 15.54,-41.56 2.35,-3.25 3.72,-3.25 7.9,-3.25 h 3.28 c 1.36,0.2 1.6,0.9 1.6,1.37 0,0.47 -0.47,0.94 -0.94,1.41 -1.37,1.6 -2.3,3.94 -3.24,6.72 l -30.2,84.33 c -3.24,8.6 -11.13,10.67 -18.12,10.67 -0.67,0 -2.78,0 -2.78,-1.64 0,-1.14 1.18,-1.61 1.41,-1.61 4.88,-0.7 6.02,-1.64 9.77,-11.83 l 14.14,-40.2 -40.86,-40.62 c -1.64,-1.88 -2.58,-2.58 -2.58,-4.65 0,-2.58 2.11,-4.18 4.41,-4.18 2.35,0 3.71,1.6 4.89,3.01 z"
         style="fill:#000000;fill-opacity:1;fill-rule:nonzero;stroke:none"
         id="path162"
         inkscape:connector-curvature="0" /><path
         d="m 3509.96,1396.37 h -3.51 c -0.24,-2.31 -1.37,-8.36 -2.78,-9.3 -0.7,-0.66 -8.59,-0.66 -10.23,-0.66 h -19.03 c 10.9,9.49 14.61,12.54 20.67,17.42 7.65,6.01 14.88,12.54 14.88,22.26 0,12.54 -10.94,20.24 -24.18,20.24 -12.77,0 -21.6,-9.06 -21.6,-18.6 0,-5.11 4.41,-5.82 5.59,-5.82 2.3,0 5.35,1.88 5.35,5.59 0,1.88 -0.71,5.59 -6.06,5.59 3.24,7.18 10.24,9.49 15.12,9.49 10.43,0 15.78,-8.13 15.78,-16.49 0,-9.06 -6.52,-16.01 -9.76,-19.72 l -24.85,-24.85 c -1.17,-0.93 -1.17,-1.17 -1.17,-3.94 h 42.73 z"
         style="fill:#000000;fill-opacity:1;fill-rule:nonzero;stroke:none"
         id="path164"
         inkscape:connector-curvature="0" /><path
         d="m 3575.9,1408.12 c 1.64,-6.01 6.99,-9.96 13.24,-9.96 5.12,0 8.59,3.48 10.94,8.13 2.54,5.31 4.41,14.37 4.41,14.61 0,1.64 -1.17,1.64 -1.64,1.64 -1.64,0 -1.64,-0.7 -2.11,-2.81 -2.07,-8.36 -4.84,-18.32 -11.13,-18.32 -3.01,0 -4.65,1.83 -4.65,6.71 0,3.25 1.88,10.24 3.01,15.59 l 4.18,16.02 c 0.47,2.07 1.87,7.65 2.58,9.96 0.7,3.51 2.07,9.06 2.07,10 0,2.58 -2.07,3.94 -4.18,3.94 -0.67,0 -4.65,-0.23 -5.78,-5.11 -2.82,-10.9 -9.3,-36.92 -11.18,-44.57 -0.23,-0.71 -6.01,-12.54 -16.95,-12.54 -7.66,0 -9.06,6.71 -9.06,12.07 0,8.36 4.18,19.96 7.93,30.19 1.83,4.65 2.54,6.72 2.54,9.53 0,6.49 -4.65,12.07 -12.07,12.07 -14.18,0 -19.53,-21.6 -19.53,-22.77 0,-1.6 1.4,-1.6 1.64,-1.6 1.64,0 1.64,0.43 2.3,2.77 3.75,12.78 9.53,18.36 15.12,18.36 1.4,0 3.71,-0.23 3.71,-4.88 0,-3.48 -1.64,-7.89 -2.54,-10 -5.59,-14.85 -8.59,-23.91 -8.59,-31.13 0,-14.14 10.19,-17.86 18.08,-17.86 9.77,0 15.12,6.72 17.66,9.96 z"
         style="fill:#000000;fill-opacity:1;fill-rule:nonzero;stroke:none"
         id="path166"
         inkscape:connector-curvature="0" /><path
         d="m 3661.17,1396.37 h -3.51 c -0.2,-2.31 -1.37,-8.36 -2.78,-9.3 -0.7,-0.66 -8.59,-0.66 -10.19,-0.66 h -19.07 c 10.9,9.49 14.65,12.54 20.67,17.42 7.66,6.01 14.88,12.54 14.88,22.26 0,12.54 -10.94,20.24 -24.18,20.24 -12.77,0 -21.6,-9.06 -21.6,-18.6 0,-5.11 4.41,-5.82 5.59,-5.82 2.34,0 5.35,1.88 5.35,5.59 0,1.88 -0.71,5.59 -6.06,5.59 3.25,7.18 10.24,9.49 15.12,9.49 10.43,0 15.78,-8.13 15.78,-16.49 0,-9.06 -6.48,-16.01 -9.76,-19.72 l -24.85,-24.85 c -1.17,-0.93 -1.17,-1.17 -1.17,-3.94 h 42.73 z"
         style="fill:#000000;fill-opacity:1;fill-rule:nonzero;stroke:none"
         id="path168"
         inkscape:connector-curvature="0" /><path
         d="m 528.789,699.141 h 21.012 c 4.578,0 7.039,0 7.039,4.531 0,2.457 -2.461,2.457 -6.328,2.457 h -19.614 c 8.051,31.883 9.102,36.101 9.102,37.5 0,3.871 -2.809,5.941 -6.641,5.941 -0.699,0 -7.031,0 -8.789,-8.05 l -8.75,-35.391 h -21.019 c -4.571,0 -6.68,0 -6.68,-4.219 0,-2.769 1.758,-2.769 6.328,-2.769 h 19.61 c -16.09,-63.442 -17.149,-67.301 -17.149,-71.172 0,-12.231 8.399,-20.668 20.668,-20.668 22.774,0 35.391,32.578 35.391,34.34 0,2.461 -1.758,2.461 -2.457,2.461 -2.114,0 -2.461,-0.704 -3.481,-3.161 -9.492,-23.48 -21.41,-28.711 -29.101,-28.711 -4.571,0 -6.989,2.809 -6.989,10.149 0,5.59 0.7,7 1.36,10.859 z"
         style="fill:#000000;fill-opacity:1;fill-rule:nonzero;stroke:none"
         id="path170"
         inkscape:connector-curvature="0" /><path
         d="m 644.18,626.02 c 0,17.179 -2.11,29.8 -9.102,40.66 -4.918,6.992 -14.726,13.32 -26.988,13.32 -36.449,0 -36.449,-42.77 -36.449,-53.98 0,-11.219 0,-52.899 36.449,-52.899 36.09,0 36.09,41.68 36.09,52.899 z m -36.09,-48.36 c -7.352,0 -16.84,4.219 -19.969,16.828 -2.101,9.102 -2.101,22.071 -2.101,33.633 0,11.57 0,23.481 2.101,31.879 3.481,12.27 13.289,15.781 19.969,15.781 8.39,0 16.48,-5.269 19.25,-14.371 2.461,-8.398 2.82,-19.609 2.82,-33.289 0,-11.562 0,-23.121 -2.109,-32.922 C 624.922,580.82 614.379,577.66 608.09,577.66 Z"
         style="fill:#000000;fill-opacity:1;fill-rule:nonzero;stroke:none"
         id="path172"
         inkscape:connector-curvature="0" /><path
         d="m 2781.88,721.91 h 21.87 c 4.73,0 7.27,0 7.27,4.731 0,2.578 -2.54,2.578 -6.57,2.578 h -20.39 c 8.4,33.121 9.49,37.5 9.49,38.98 0,3.992 -2.93,6.18 -6.95,6.18 -0.7,0 -7.26,0 -9.1,-8.359 l -9.1,-36.801 h -21.88 c -4.72,0 -6.91,0 -6.91,-4.379 0,-2.93 1.84,-2.93 6.56,-2.93 h 20.39 c -16.76,-65.93 -17.85,-69.961 -17.85,-73.941 0,-12.77 8.75,-21.52 21.52,-21.52 23.68,0 36.8,33.903 36.8,35.699 0,2.582 -1.83,2.582 -2.58,2.582 -2.15,0 -2.54,-0.75 -3.63,-3.281 -9.84,-24.418 -22.23,-29.89 -30.23,-29.89 -4.73,0 -7.31,2.929 -7.31,10.55 0,5.86 0.74,7.301 1.49,11.332 z"
         style="fill:#000000;fill-opacity:1;fill-rule:nonzero;stroke:none"
         id="path174"
         inkscape:connector-curvature="0" /><path
         d="m 2901.84,645.898 c 0,17.852 -2.19,30.981 -9.46,42.262 -5.11,7.309 -15.31,13.871 -28.04,13.871 -37.89,0 -37.89,-44.449 -37.89,-56.133 0,-11.636 0,-55 37.89,-55 37.5,0 37.5,43.364 37.5,55 z m -37.5,-50.277 c -7.66,0 -17.5,4.379 -20.79,17.5 -2.18,9.461 -2.18,22.93 -2.18,34.969 0,12.031 0,24.41 2.18,33.16 3.64,12.73 13.83,16.41 20.79,16.41 8.75,0 17.11,-5.469 20.04,-14.961 2.53,-8.75 2.89,-20.398 2.89,-34.609 0,-12.039 0,-24.031 -2.19,-34.258 -3.28,-14.922 -14.18,-18.211 -20.74,-18.211 z"
         style="fill:#000000;fill-opacity:1;fill-rule:nonzero;stroke:none"
         id="path176"
         inkscape:connector-curvature="0" /><path
         d="m 3068.98,682.582 h 64.85 c 3.28,0 7.65,0 7.65,4.719 0,4.379 -4.37,4.379 -7.65,4.379 h -64.85 v 65.199 c 0,3.281 0,7.652 -4.72,7.652 -4.77,0 -4.77,-4.371 -4.77,-7.652 V 691.68 h -64.84 c -3.28,0 -7.66,0 -7.66,-4.379 0,-4.719 4.38,-4.719 7.66,-4.719 h 64.84 V 617.34 c 0,-3.281 0,-7.649 4.77,-7.649 4.72,0 4.72,4.368 4.72,7.649 z"
         style="fill:#000000;fill-opacity:1;fill-rule:nonzero;stroke:none"
         id="path178"
         inkscape:connector-curvature="0" /><path
         d="m 3305.31,770 c 1.8,6.559 2.54,8.012 5.47,8.75 2.19,0.352 9.84,0.352 14.57,0.352 23.67,0 33.87,-0.704 33.87,-18.942 0,-3.64 -0.7,-12.738 -1.8,-18.558 0,-1.09 -0.74,-3.672 -0.74,-4.372 0,-1.492 0.74,-3.281 2.93,-3.281 2.54,0 2.89,1.789 3.63,5.461 l 6.17,40.43 c 0.39,1.101 0.39,3.281 0.39,4.031 0,2.539 -2.18,2.539 -6.21,2.539 h -128.98 c -5.47,0 -5.82,-0.359 -7.66,-4.73 l -13.83,-40.821 c 0,-0.347 -1.44,-3.629 -1.44,-4.379 0,-1.089 1.44,-2.531 2.89,-2.531 2.19,0 2.58,1.442 4.02,5.071 12.39,36.101 18.6,40.082 52.82,40.082 h 9.14 c 6.52,0 6.52,-0.704 6.52,-2.891 0,-1.09 -0.7,-4.02 -1.09,-4.731 l -30.94,-124.25 c -2.19,-8.398 -2.93,-10.941 -27.7,-10.941 -8.39,0 -9.84,0 -9.84,-4.379 0,-2.89 2.54,-2.89 4.02,-2.89 6.18,0 12.74,0.359 18.95,0.359 6.52,0 13.48,0.351 20.04,0.351 6.52,0 12.73,-0.351 19.29,-0.351 6.57,0 13.48,-0.359 20.04,-0.359 2.19,0 5.08,0 5.08,4.73 0,2.539 -1.8,2.539 -8.01,2.539 -5.46,0 -8.75,0 -14.57,0.352 -6.91,0.738 -8.75,1.48 -8.75,5.121 0,0.347 0,1.437 1.1,4.718 z"
         style="fill:#000000;fill-opacity:1;fill-rule:nonzero;stroke:none"
         id="path180"
         inkscape:connector-curvature="0" /><path
         d="m 3635.7,1094.34 h -147.5 v -11.45 h 26.37 V 939.961 H 3488.2 V 928.48 c 9.18,0.782 34.03,0.782 44.73,0.782 11.84,0 38.2,0 49.3,-0.782 v 11.481 h -33.25 v 65.739 h 12.23 c 23.67,0 25.59,-10.348 25.59,-28.278 h 11.48 v 68.398 h -11.48 c 0,-17.97 -1.92,-28.67 -25.59,-28.67 h -12.23 v 65.74 h 34.38 c 38.98,0 44.73,-18.75 48.55,-47.38 h 11.45 z"
         style="fill:#000000;fill-opacity:1;fill-rule:nonzero;stroke:none"
         id="path182"
         inkscape:connector-curvature="0" /><path
         d="m 3697.03,1104.06 h 17.19 c 3.44,0 5.35,0 5.35,3.83 0,2.27 -1.91,2.27 -4.96,2.27 h -16.06 l 6.1,25.23 c 0.39,0.78 0.78,1.91 0.78,2.31 0,3.43 -2.7,5.74 -6.13,5.74 -4.18,0 -6.49,-3.09 -8.01,-7.27 -1.17,-4.61 1.13,3.83 -6.52,-26.01 h -17.19 c -3.05,0 -5.35,0 -5.35,-3.79 0,-2.31 1.91,-2.31 4.96,-2.31 h 16.05 l -9.92,-40.11 c -1.13,-4.22 -2.7,-10.36 -2.7,-12.62 0,-9.96 8.79,-16.06 18.36,-16.06 19.11,0 29.81,23.68 29.81,25.98 0,2.3 -2.31,2.3 -2.66,2.3 -2.3,0 -2.3,-0.39 -3.83,-3.43 -4.6,-10.71 -13.39,-20.28 -22.53,-20.28 -3.83,0 -6.14,2.31 -6.14,8.4 0,1.56 0.78,5.35 1.14,6.92 z"
         style="fill:#000000;fill-opacity:1;fill-rule:nonzero;stroke:none"
         id="path184"
         inkscape:connector-curvature="0" /><path
         d="m 3801.99,1051.41 c 0,8.79 0,42.03 -32.11,42.03 -31.72,0 -31.72,-33.24 -31.72,-42.03 0,-8.79 0,-41.64 31.72,-41.64 32.11,0 32.11,32.85 32.11,41.64 z m -32.11,-37.46 c -4.22,0 -14.53,1.56 -17.58,13.78 -1.91,6.49 -1.91,15.28 -1.91,25.2 0,9.18 0,17.58 1.91,24.45 3.05,10.35 12.62,12.27 17.58,12.27 9.18,0 15.67,-4.61 17.97,-13.4 1.88,-6.09 1.88,-16.05 1.88,-23.32 0,-8.4 0,-18.32 -1.88,-25.59 -3.08,-11.83 -13.01,-13.39 -17.97,-13.39 z"
         style="fill:#000000;fill-opacity:1;fill-rule:nonzero;stroke:none"
         id="path186"
         inkscape:connector-curvature="0" /><path
         d="m 3902.42,1075.39 h 52.35 c 2.3,0 6.13,0 6.13,3.83 0,4.57 -3.83,4.57 -6.13,4.57 h -52.35 v 52.38 c 0,1.92 0,6.1 -3.83,6.1 -4.18,0 -4.18,-3.83 -4.18,-6.1 v -52.38 h -52.38 c -2.3,0 -6.48,0 -6.48,-4.18 0,-4.22 3.83,-4.22 6.48,-4.22 h 52.38 v -52.34 c 0,-2.31 0,-6.53 3.79,-6.53 4.22,0 4.22,4.22 4.22,6.53 z"
         style="fill:#000000;fill-opacity:1;fill-rule:nonzero;stroke:none"
         id="path188"
         inkscape:connector-curvature="0" /><path
         d="m 4056.21,1140 c 1.17,4.96 1.52,5.31 5.35,5.7 0.78,0 6.49,0 9.96,0 10.67,0 14.89,0 19.1,-1.13 7.62,-2.3 8.01,-7.27 8.01,-13.4 0,-2.65 0,-4.96 -1.13,-13.75 l -0.39,-1.91 c 0,-1.92 1.13,-2.66 3.05,-2.66 2.69,0 2.69,1.53 3.08,4.18 l 4.57,32.5 c 0,2.31 -1.91,2.31 -4.96,2.31 h -104.73 c -4.21,0 -4.57,0 -5.74,-3.44 l -11.05,-30.2 c 0,-0.78 -0.78,-2.3 -0.78,-3.04 0,-0.78 0.39,-2.31 3.04,-2.31 2.31,0 2.31,0.74 3.44,4.18 9.96,27.15 15.67,28.67 41.68,28.67 h 6.88 c 5.35,0 5.35,0 5.35,-1.52 0,0 0,-1.13 -0.78,-3.44 l -22.54,-89.8 c -1.53,-6.14 -1.92,-8.05 -19.89,-8.05 -6.09,0 -7.61,0 -7.61,-3.79 0,-0.39 0.35,-2.3 3.04,-2.3 4.57,0 9.93,0.39 14.54,0.39 4.96,0 9.92,0.35 14.49,0.35 5,0 10.7,0 15.7,-0.35 4.57,0 9.53,-0.39 14.14,-0.39 1.52,0 3.79,0 3.79,3.82 0,2.27 -1.52,2.27 -6.87,2.27 -3.05,0 -6.49,0.39 -9.93,0.39 -5.74,0.39 -6.13,1.17 -6.13,3.05 0,1.56 0,1.56 0.78,4.22 z"
         style="fill:#000000;fill-opacity:1;fill-rule:nonzero;stroke:none"
         id="path190"
         inkscape:connector-curvature="0" /><path
         d="m 3697.03,935.781 h 17.19 c 3.44,0 5.35,0 5.35,3.828 0,2.27 -1.91,2.27 -4.96,2.27 h -16.06 l 6.1,25.23 c 0.39,0.782 0.78,1.911 0.78,2.301 0,3.442 -2.7,5.75 -6.13,5.75 -4.18,0 -6.49,-3.09 -8.01,-7.269 -1.17,-4.61 1.13,3.828 -6.52,-26.012 h -17.19 c -3.05,0 -5.35,0 -5.35,-3.789 0,-2.309 1.91,-2.309 4.96,-2.309 h 16.05 l -9.92,-40.121 c -1.13,-4.211 -2.7,-10.351 -2.7,-12.609 0,-9.961 8.79,-16.063 18.36,-16.063 19.11,0 29.81,23.672 29.81,25.981 0,2.301 -2.31,2.301 -2.66,2.301 -2.3,0 -2.3,-0.391 -3.83,-3.43 -4.6,-10.711 -13.39,-20.281 -22.53,-20.281 -3.83,0 -6.14,2.312 -6.14,8.402 0,1.559 0.78,5.348 1.14,6.918 z"
         style="fill:#000000;fill-opacity:1;fill-rule:nonzero;stroke:none"
         id="path192"
         inkscape:connector-curvature="0" /><path
         d="m 3801.99,883.121 c 0,8.789 0,42.039 -32.11,42.039 -31.72,0 -31.72,-33.25 -31.72,-42.039 0,-8.781 0,-41.641 31.72,-41.641 32.11,0 32.11,32.86 32.11,41.641 z m -32.11,-37.461 c -4.22,0 -14.53,1.57 -17.58,13.789 -1.91,6.492 -1.91,15.281 -1.91,25.199 0,9.18 0,17.582 1.91,24.493 3.05,10.308 12.62,12.23 17.58,12.23 9.18,0 15.67,-4.609 17.97,-13.402 1.88,-6.09 1.88,-16.059 1.88,-23.321 0,-8.398 0,-18.32 -1.88,-25.589 -3.08,-11.829 -13.01,-13.399 -17.97,-13.399 z"
         style="fill:#000000;fill-opacity:1;fill-rule:nonzero;stroke:none"
         id="path194"
         inkscape:connector-curvature="0" /><path
         d="m 4207.42,870 c 0,0.781 0,1.172 -4.18,5.352 -30.19,30.589 -38.24,76.839 -38.24,114.296 0,42.422 9.18,84.842 39.38,115.042 3.04,3.04 3.04,3.43 3.04,4.18 0,1.91 -0.74,2.69 -2.26,2.69 -2.7,0 -24.5,-16.83 -38.99,-47.77 -12.22,-26.76 -15.31,-53.91 -15.31,-74.142 0,-19.136 2.69,-48.558 16.05,-76.449 14.93,-29.801 35.55,-45.859 38.25,-45.859 1.52,0 2.26,0.75 2.26,2.66 z"
         style="fill:#000000;fill-opacity:1;fill-rule:nonzero;stroke:none"
         id="path196"
         inkscape:connector-curvature="0" /><path
         d="m 4306.02,988.48 28.28,31.72 c 3.47,3.43 5,5 24.84,5 v 11.44 c -8.4,-0.39 -21.02,-0.74 -22.15,-0.74 -6.13,0 -18.36,0.74 -25.23,0.74 v -11.44 c 3.44,0 6.52,-0.4 9.18,-1.92 -0.78,-1.52 -0.78,-2.3 -1.92,-3.08 l -20.23,-22.93 -24.1,27.93 h 9.96 v 11.44 c -6.53,0 -21.8,-0.74 -29.85,-0.74 -7.61,0 -18.71,0.74 -26.71,0.74 v -11.44 h 17.57 l 37.82,-44.731 -32.11,-35.938 c -3.79,-4.57 -12.58,-4.57 -24.46,-4.57 V 928.48 c 8.4,0.391 21.41,0.782 22.54,0.782 6.14,0 20.28,-0.391 24.85,-0.782 v 11.481 c -4.18,0 -8.79,1.129 -8.79,2.66 0,0.391 0,0.391 1.56,2.301 l 23.67,26.758 26.76,-31.719 h -9.57 V 928.48 c 6.52,0.391 21.41,0.782 29.45,0.782 7.62,0 18.71,-0.391 26.76,-0.782 v 11.481 h -17.23 z"
         style="fill:#000000;fill-opacity:1;fill-rule:nonzero;stroke:none"
         id="path198"
         inkscape:connector-curvature="0" /><path
         d="m 4457.34,946.211 c 0,18.711 -2.26,32.5 -9.92,44.34 -5.35,7.648 -16.05,14.529 -29.41,14.529 -39.77,0 -39.77,-46.639 -39.77,-58.869 0,-12.231 0,-57.691 39.77,-57.691 39.33,0 39.33,45.46 39.33,57.691 z m -39.33,-52.731 c -8.05,0 -18.36,4.571 -21.8,18.36 -2.3,9.922 -2.3,24.058 -2.3,36.68 0,12.609 0,25.582 2.3,34.761 3.83,13.399 14.53,17.189 21.8,17.189 9.14,0 17.93,-5.7 21.01,-15.669 2.66,-9.18 3.05,-21.403 3.05,-36.281 0,-12.622 0,-25.239 -2.3,-35.942 -3.44,-15.668 -14.89,-19.098 -21.76,-19.098 z"
         style="fill:#000000;fill-opacity:1;fill-rule:nonzero;stroke:none"
         id="path200"
         inkscape:connector-curvature="0" /><path
         d="m 4549.1,989.648 c 0,18.712 -2.65,48.122 -16.05,76.052 -14.53,29.81 -35.55,45.86 -37.82,45.86 -1.56,0 -2.69,-1.17 -2.69,-2.69 0,-0.75 0,-1.14 4.61,-5.75 24.06,-24.06 37.81,-62.65 37.81,-113.472 0,-42.07 -8.79,-84.847 -38.98,-115.429 -3.44,-3.047 -3.44,-3.438 -3.44,-4.219 0,-1.52 1.13,-2.66 2.69,-2.66 2.27,0 24.46,16.801 38.6,47.781 12.62,26.758 15.27,53.859 15.27,74.527 z"
         style="fill:#000000;fill-opacity:1;fill-rule:nonzero;stroke:none"
         id="path202"
         inkscape:connector-curvature="0" /><path
         d="m 594.691,1511.68 c 154.098,-42.19 314.528,-61.21 474.219,-56.33 179.88,5.47 357.97,41.17 530.07,93.87 114.3,35 226.68,77.62 343.91,100.98 117.27,23.35 241.95,26.48 353.52,-16.49 126.32,-48.63 224.61,-151.37 346.68,-209.96 144.25,-69.26 320.03,-70.63 464.1,-0.98 72.81,35.24 136.4,86.76 206.68,126.8 82.89,47.19 175.08,78.05 269.68,90.23"
         style="fill:none;stroke:#000000;stroke-width:8.50967026;stroke-linecap:butt;stroke-linejoin:miter;stroke-miterlimit:4;stroke-dasharray:none;stroke-opacity:1"
         id="path204"
         inkscape:connector-curvature="0" /></g></g></svg>